<?xml version="1.0" standalone="no"?>
<!DOCTYPE svg PUBLIC "-//W3C//DTD SVG 20010904//EN"
 "http://www.w3.org/TR/2001/REC-SVG-20010904/DTD/svg10.dtd">
<svg version="1.0" xmlns="http://www.w3.org/2000/svg"
 width="1197.000000pt" height="1197.000000pt" viewBox="0 0 1197.000000 1197.000000"
 preserveAspectRatio="xMidYMid meet">
<metadata>
Created by potrace 1.14, written by Peter Selinger 2001-2017
</metadata>
<g transform="translate(0.000000,1197.000000) scale(0.100000,-0.100000)"
fill="#000000" stroke="none">
<path d="M3276 11628 c5 -7 2 -9 -8 -6 -8 4 -21 -2 -28 -12 -8 -11 -16 -17
-20 -15 -3 2 -7 -6 -7 -17 -1 -12 -6 -24 -11 -27 -4 -3 -16 -23 -25 -43 -10
-21 -22 -38 -28 -38 -6 0 -7 -5 -4 -11 4 -5 -2 -18 -13 -27 -10 -9 -18 -25
-16 -35 1 -9 -2 -15 -7 -11 -5 3 -9 -2 -9 -10 0 -9 -5 -16 -11 -16 -6 0 -9 -7
-5 -15 3 -9 -3 -19 -15 -25 -11 -6 -17 -14 -15 -19 7 -10 -29 -63 -37 -55 -3
4 -4 -3 -2 -16 3 -15 0 -20 -8 -17 -8 3 -14 -4 -15 -16 0 -12 -6 -23 -12 -25
-5 -2 -8 -8 -4 -13 3 -5 -2 -12 -10 -15 -9 -3 -16 -14 -16 -23 0 -10 -8 -26
-18 -37 -11 -11 -18 -27 -16 -37 1 -9 -1 -15 -6 -12 -4 3 -14 -3 -21 -12 -12
-14 -12 -16 1 -9 8 4 6 0 -5 -9 -11 -8 -20 -23 -20 -33 0 -9 -5 -16 -12 -15
-7 2 -10 -4 -7 -12 6 -13 -1 -24 -38 -66 -10 -10 -13 -19 -8 -19 6 0 5 -8 -2
-19 -7 -11 -16 -17 -22 -14 -5 3 -6 1 -2 -5 3 -6 -1 -18 -10 -26 -8 -9 -12
-16 -7 -16 4 0 0 -5 -9 -11 -10 -5 -18 -19 -18 -29 0 -11 -5 -20 -11 -20 -6 0
-9 -7 -5 -15 3 -8 1 -15 -4 -15 -5 0 -16 -16 -24 -35 -8 -19 -20 -35 -27 -35
-6 0 -8 -7 -5 -15 3 -9 -1 -18 -9 -21 -8 -4 -12 -10 -9 -15 3 -5 0 -9 -6 -9
-6 0 -9 -4 -6 -9 3 -5 -1 -12 -10 -15 -8 -3 -13 -10 -10 -14 3 -5 -2 -18 -10
-28 -9 -10 -12 -13 -8 -5 4 9 3 12 -4 8 -5 -4 -8 -16 -5 -26 3 -10 -1 -22 -8
-26 -8 -6 -10 -4 -4 5 6 9 4 11 -4 6 -7 -5 -10 -11 -7 -14 4 -3 -1 -16 -9 -29
-9 -13 -13 -28 -10 -34 4 -5 1 -8 -7 -7 -7 2 -12 -3 -11 -9 2 -7 -2 -13 -9
-13 -6 0 -8 -3 -5 -7 4 -4 -5 -20 -20 -36 -16 -17 -22 -26 -14 -22 10 6 8 -1
-4 -23 -10 -17 -22 -29 -27 -26 -5 3 -8 2 -7 -3 3 -19 -2 -34 -10 -29 -5 4 -7
-4 -3 -16 3 -13 1 -19 -5 -15 -6 4 -14 0 -17 -9 -4 -10 -2 -13 7 -9 6 4 3 -1
-7 -9 -11 -9 -16 -16 -10 -16 5 0 4 -4 -2 -8 -6 -4 -21 -27 -35 -52 -13 -25
-31 -51 -39 -58 -13 -12 -13 -13 0 -6 12 6 12 4 -1 -12 -9 -10 -19 -27 -22
-37 -4 -10 -12 -15 -17 -12 -6 4 -10 3 -9 -2 3 -12 -13 -47 -25 -55 -7 -5 -7
-8 2 -8 7 0 10 -5 7 -11 -4 -6 -13 -8 -21 -5 -12 5 -12 2 -3 -15 6 -12 7 -19
1 -15 -9 5 -18 -6 -20 -27 -1 -4 -8 -15 -17 -23 -8 -9 -15 -22 -15 -30 0 -8
-5 -14 -11 -14 -5 0 -7 -4 -4 -10 3 -5 2 -10 -2 -10 -5 0 -17 -18 -27 -40 -10
-23 -22 -37 -28 -34 -7 5 -8 2 -3 -6 4 -7 2 -15 -4 -20 -7 -4 -13 -16 -14 -27
0 -12 -6 -19 -13 -16 -6 2 -14 -3 -18 -12 -3 -9 -2 -13 4 -10 14 9 12 -4 -2
-20 -30 -33 -38 -45 -38 -53 0 -5 -9 -21 -20 -34 -10 -14 -16 -28 -13 -32 3
-3 1 -6 -6 -6 -7 0 -9 -4 -6 -10 3 -5 1 -10 -4 -10 -6 0 -11 -7 -11 -15 0 -7
-8 -19 -17 -24 -13 -7 -14 -10 -4 -11 8 0 2 -10 -15 -26 -16 -15 -23 -23 -15
-19 17 10 -18 -47 -37 -59 -12 -7 -12 -10 -1 -17 10 -6 11 -9 2 -9 -7 0 -13
-7 -13 -16 0 -8 -4 -12 -10 -9 -6 3 -7 -1 -4 -9 4 -11 0 -16 -12 -17 -11 0
-14 -3 -7 -6 10 -3 10 -7 0 -18 -7 -7 -16 -10 -21 -7 -5 3 -6 0 -2 -7 5 -7 0
-19 -10 -27 -11 -9 -14 -13 -8 -10 6 3 2 -12 -8 -34 -11 -22 -25 -40 -30 -40
-6 0 -7 -7 -4 -16 3 -8 2 -12 -4 -9 -6 3 -10 -1 -10 -9 0 -9 -4 -16 -9 -16 -5
0 -12 -11 -15 -25 -4 -14 -10 -24 -14 -21 -4 2 -9 -5 -9 -17 -1 -12 -9 -27
-18 -33 -18 -13 -20 -28 -2 -18 6 4 0 -5 -15 -20 -15 -16 -25 -32 -22 -37 3
-5 0 -9 -5 -9 -6 0 -11 -5 -11 -11 0 -6 -7 -17 -15 -26 -8 -8 -13 -19 -10 -24
4 -5 1 -9 -5 -9 -6 0 -8 -5 -4 -12 5 -8 2 -9 -10 -5 -13 5 -15 2 -12 -18 3
-14 1 -23 -5 -20 -8 6 -11 -2 -8 -21 0 -4 -3 -10 -8 -13 -19 -14 -47 -54 -33
-47 9 4 8 2 -2 -7 -10 -8 -18 -22 -18 -31 0 -9 -4 -16 -9 -16 -5 0 -13 -9 -16
-20 -4 -11 -10 -18 -15 -15 -4 3 -6 -4 -3 -15 3 -11 1 -20 -3 -20 -5 0 -15
-14 -22 -30 -8 -17 -18 -27 -24 -24 -6 4 -8 2 -4 -4 3 -6 1 -16 -6 -24 -7 -7
-14 -20 -16 -28 -2 -7 -11 -25 -21 -39 -10 -14 -22 -36 -25 -48 -4 -13 -12
-23 -18 -23 -6 0 -9 -3 -5 -6 3 -4 -1 -13 -9 -21 -8 -8 -12 -19 -9 -24 4 -5
-1 -9 -11 -9 -14 0 -15 -2 -3 -17 7 -10 9 -15 5 -11 -8 7 -39 -32 -45 -57 -4
-17 -23 -35 -30 -30 -4 2 -8 -2 -8 -10 0 -8 5 -12 11 -9 6 3 2 -2 -8 -10 -11
-9 -16 -16 -10 -16 5 -1 -2 -8 -16 -16 -14 -8 -17 -13 -8 -10 24 7 23 1 -7
-28 -14 -14 -25 -28 -25 -31 1 -21 -1 -25 -9 -20 -6 3 -8 -3 -6 -15 2 -11 1
-19 -3 -19 -20 3 -25 -2 -12 -11 13 -8 13 -10 -2 -10 -9 0 -20 -5 -24 -12 -5
-7 -3 -8 6 -3 8 5 3 -7 -10 -25 -13 -18 -18 -30 -10 -25 9 5 11 4 6 -3 -4 -7
-13 -12 -21 -12 -8 0 -12 -8 -10 -20 2 -13 -2 -20 -11 -20 -8 0 -12 -4 -9 -10
3 -5 1 -10 -5 -10 -6 0 -8 -5 -4 -12 5 -8 2 -9 -11 -4 -15 5 -16 4 -5 -9 9
-11 9 -15 1 -15 -7 0 -10 -4 -7 -9 3 -5 -1 -12 -10 -15 -9 -3 -14 -13 -11 -21
4 -8 -2 -17 -15 -21 -14 -4 -17 -9 -8 -14 8 -5 8 -9 -4 -13 -9 -4 -16 -15 -16
-26 0 -11 -6 -24 -14 -28 -18 -11 -38 -51 -31 -63 3 -6 -1 -10 -10 -10 -9 0
-13 -4 -10 -10 3 -5 1 -10 -5 -10 -7 0 -10 -7 -6 -15 3 -8 1 -15 -3 -15 -13 0
-52 -70 -45 -81 3 -5 0 -8 -6 -7 -7 2 -14 -6 -16 -17 -1 -11 -10 -25 -19 -32
-10 -6 -14 -16 -10 -22 3 -6 -1 -11 -10 -11 -9 0 -14 -4 -10 -9 3 -5 1 -12 -5
-16 -5 -3 -10 -14 -10 -23 0 -10 -9 -23 -21 -30 -11 -7 -18 -19 -15 -27 2 -7
-2 -16 -11 -19 -8 -4 -13 -13 -9 -21 3 -9 0 -15 -9 -15 -8 0 -15 -7 -15 -16 0
-8 -7 -22 -16 -31 -8 -9 -12 -23 -9 -31 3 -9 3 -13 -1 -10 -3 4 -12 1 -19 -5
-10 -9 -10 -15 -1 -26 7 -10 7 -13 0 -8 -7 4 -21 -12 -34 -38 -13 -25 -27 -45
-32 -45 -4 0 -8 -7 -8 -15 0 -8 -6 -15 -12 -15 -9 0 -8 -4 2 -10 13 -8 12 -10
-3 -10 -10 0 -15 -4 -12 -10 3 -5 1 -10 -6 -10 -9 0 -9 -4 1 -15 10 -12 8 -14
-8 -10 -16 3 -20 -1 -17 -16 2 -10 -1 -19 -7 -19 -5 0 -7 -8 -4 -17 4 -10 4
-14 0 -11 -3 4 -13 0 -21 -8 -9 -8 -13 -17 -10 -21 9 -8 -17 -32 -28 -25 -5 3
-3 -3 5 -13 9 -11 10 -16 2 -11 -6 4 -12 2 -12 -3 0 -6 0 -13 0 -16 0 -3 -9
-14 -21 -26 -12 -12 -19 -29 -16 -39 3 -14 1 -17 -11 -13 -10 4 -13 2 -8 -5 3
-6 1 -14 -5 -18 -6 -3 -17 -22 -25 -40 -8 -19 -19 -34 -24 -34 -5 0 -7 -7 -4
-15 4 -9 0 -15 -10 -15 -9 0 -15 -3 -14 -7 4 -14 -13 -53 -21 -49 -4 3 -8 -5
-8 -16 -1 -12 -7 -26 -14 -32 -9 -8 -10 -7 -4 3 5 10 4 12 -4 7 -6 -4 -9 -12
-5 -17 3 -5 0 -16 -6 -24 -7 -8 -9 -15 -6 -15 4 0 1 -6 -6 -14 -7 -8 -17 -11
-22 -8 -5 3 -7 -7 -4 -22 4 -20 2 -26 -7 -22 -8 3 -16 -2 -19 -10 -3 -8 -1
-14 5 -14 6 0 3 -7 -5 -16 -9 -8 -16 -20 -16 -25 0 -6 -4 -8 -9 -5 -11 7 -23
-22 -15 -35 3 -5 -2 -12 -10 -15 -9 -3 -16 -15 -16 -25 0 -11 -7 -19 -17 -19
-15 0 -16 -2 -3 -10 10 -6 11 -10 3 -10 -8 0 -11 -9 -9 -22 2 -13 8 -22 14
-21 6 2 9 -6 7 -17 -2 -11 2 -20 8 -20 7 0 6 -4 -3 -10 -13 -8 -12 -10 3 -10
9 0 17 -5 17 -11 0 -5 5 -7 12 -3 7 4 8 3 4 -5 -4 -6 2 -23 13 -37 11 -15 18
-30 15 -35 -3 -5 0 -9 6 -9 6 0 8 -4 5 -10 -3 -5 2 -10 12 -10 15 0 16 -2 3
-10 -13 -8 -12 -10 3 -10 10 0 15 -4 12 -10 -3 -5 -1 -10 5 -10 6 0 8 -4 5
-10 -3 -5 2 -10 12 -10 15 0 16 -2 3 -10 -14 -9 -7 -14 13 -11 4 1 3 -8 -3
-19 -6 -11 -7 -20 -3 -19 22 4 31 -3 26 -20 -3 -13 2 -21 16 -26 17 -5 19 -10
11 -25 -9 -16 -8 -18 6 -13 12 4 15 3 10 -5 -4 -7 -2 -12 3 -12 6 0 11 -7 11
-15 0 -9 7 -18 16 -22 13 -5 13 -7 2 -14 -10 -7 -9 -9 4 -9 9 0 20 -5 24 -12
5 -7 3 -8 -7 -3 -12 8 -12 6 0 -8 7 -9 11 -23 8 -31 -4 -10 -1 -13 7 -10 8 3
17 1 21 -5 3 -6 1 -11 -6 -11 -7 0 -2 -11 11 -25 12 -13 26 -22 30 -20 4 2 7
-2 7 -10 0 -8 -4 -12 -9 -9 -4 3 -8 0 -8 -5 0 -6 7 -11 15 -11 8 0 17 -11 21
-25 4 -15 11 -22 18 -18 6 4 4 -2 -4 -12 -8 -10 -10 -16 -5 -13 14 8 32 -14
29 -34 -1 -9 4 -19 12 -22 8 -3 14 -12 14 -21 0 -8 5 -15 11 -15 5 0 7 -4 4
-10 -3 -5 3 -15 14 -22 14 -9 17 -16 11 -29 -7 -13 -5 -16 8 -15 10 0 16 -5
15 -14 -2 -8 9 -28 22 -45 14 -16 23 -35 20 -42 -2 -8 -1 -12 3 -10 4 3 13 -1
20 -9 10 -11 10 -14 0 -14 -8 0 -6 -5 5 -11 9 -6 15 -15 11 -20 -3 -5 -2 -9 3
-8 20 3 27 -2 13 -11 -13 -8 -13 -10 2 -10 9 0 20 -5 24 -12 4 -7 3 -8 -4 -4
-7 4 -12 5 -12 2 0 -6 44 -74 59 -92 6 -7 7 -15 4 -18 -4 -3 -2 -6 4 -6 9 0
19 -20 22 -45 1 -12 27 -33 33 -28 4 2 5 -4 1 -13 -5 -14 -3 -16 12 -11 14 6
16 5 6 -7 -9 -11 -8 -17 4 -30 9 -9 13 -21 9 -27 -4 -8 -3 -9 4 -5 7 4 12 1
12 -8 0 -9 5 -16 10 -16 6 0 10 -9 10 -21 0 -15 5 -19 15 -15 13 5 14 2 4 -15
-6 -12 -7 -19 -1 -15 8 5 20 -11 27 -34 5 -21 43 -68 50 -62 5 4 6 2 2 -3 -7
-14 23 -76 34 -70 4 3 6 -4 4 -15 -3 -18 6 -25 28 -21 5 1 6 -3 2 -9 -4 -6 -1
-18 7 -27 11 -14 11 -16 -2 -9 -12 6 -11 4 1 -6 9 -7 14 -19 11 -26 -2 -7 2
-11 10 -10 7 2 12 -3 10 -9 -1 -7 3 -13 9 -13 5 0 8 -4 4 -9 -3 -5 1 -16 9
-23 7 -8 16 -23 20 -35 4 -11 15 -31 26 -43 11 -12 17 -27 14 -31 -3 -5 2 -9
10 -9 9 0 13 -6 10 -14 -3 -7 2 -16 11 -20 9 -3 13 -10 10 -16 -3 -5 -1 -10 5
-10 6 0 9 -4 5 -9 -3 -5 3 -16 13 -23 11 -7 18 -21 16 -31 -1 -10 6 -23 17
-30 10 -6 19 -20 19 -29 0 -10 5 -18 11 -18 5 0 7 -4 4 -10 -3 -5 -2 -10 4
-10 5 0 12 6 15 13 3 6 3 0 0 -15 -4 -18 0 -32 14 -46 11 -11 17 -23 14 -27
-4 -4 1 -13 12 -20 10 -8 15 -19 10 -26 -4 -8 -3 -10 4 -5 8 5 12 -1 12 -14 0
-12 4 -18 10 -15 5 3 10 -3 10 -15 0 -12 5 -18 10 -15 9 5 15 -24 11 -49 -1
-5 5 -3 14 4 13 11 14 10 9 -5 -5 -11 -4 -16 3 -12 5 3 10 0 10 -8 0 -18 46
-105 55 -105 5 0 8 -12 8 -26 0 -14 4 -23 10 -19 11 7 35 -42 31 -64 -1 -8 2
-10 10 -5 9 5 10 2 6 -9 -4 -12 -1 -15 14 -12 11 2 17 0 13 -6 -8 -14 15 -66
33 -73 8 -4 13 -13 9 -21 -3 -8 -2 -15 3 -15 5 0 12 -12 15 -26 5 -20 10 -23
21 -14 10 8 15 8 21 -1 4 -7 3 -9 -3 -6 -20 12 -21 -20 -2 -34 10 -7 19 -21
19 -31 0 -10 9 -27 21 -39 11 -11 18 -27 15 -34 -3 -8 0 -17 6 -21 7 -5 8 -2
3 6 -5 9 -4 11 3 6 7 -4 12 -15 12 -24 0 -15 2 -15 11 -2 8 12 9 10 4 -7 -4
-14 -2 -23 5 -23 6 0 8 -4 5 -10 -3 -5 -1 -10 5 -10 6 0 8 -4 5 -10 -3 -5 5
-19 19 -31 14 -12 23 -29 21 -40 -2 -12 2 -19 11 -19 8 0 14 -9 14 -20 0 -11
8 -28 18 -38 9 -10 18 -25 20 -33 2 -8 12 -21 22 -31 14 -11 16 -18 8 -21 -10
-4 -10 -6 0 -6 6 -1 12 -7 12 -15 0 -8 8 -17 17 -20 14 -6 15 -9 4 -15 -9 -6
-6 -14 15 -30 14 -11 21 -21 15 -21 -6 0 -3 -10 9 -22 11 -12 20 -28 20 -35 0
-8 5 -11 12 -7 7 5 9 2 5 -9 -3 -9 0 -18 9 -21 8 -3 14 -13 14 -21 0 -10 5
-13 12 -9 9 5 9 2 -1 -9 -12 -15 -11 -17 2 -17 11 0 14 -5 10 -17 -4 -11 -3
-14 5 -9 7 4 12 2 12 -4 0 -6 5 -8 11 -4 8 4 8 1 1 -12 -8 -15 -5 -25 13 -46
13 -15 27 -24 31 -20 5 4 3 0 -3 -8 -8 -11 -8 -18 2 -27 7 -6 16 -9 20 -5 4 4
4 -3 1 -15 -6 -18 -4 -22 7 -17 10 4 15 -1 14 -13 -1 -11 4 -17 12 -15 12 3
12 1 0 -14 -13 -15 -11 -16 11 -11 14 4 19 4 13 1 -15 -7 -17 -34 -3 -34 6 0
10 -7 10 -16 0 -9 5 -12 13 -8 7 5 7 2 -2 -10 -8 -9 -10 -16 -5 -15 19 3 34
-1 34 -12 0 -5 -5 -7 -11 -4 -6 4 -5 -2 2 -13 7 -12 17 -18 21 -16 4 3 8 -4 8
-15 0 -12 5 -21 10 -21 6 0 10 -9 10 -20 0 -11 5 -20 10 -20 6 0 10 -7 10 -16
0 -8 4 -13 9 -9 6 3 8 -3 6 -14 -2 -11 3 -22 11 -25 8 -3 14 -12 14 -21 0 -8
5 -15 10 -15 6 0 9 -3 9 -7 -3 -21 2 -33 16 -33 9 0 12 -6 9 -15 -3 -8 1 -22
10 -31 9 -8 14 -20 10 -25 -3 -5 0 -8 8 -7 7 2 12 -3 10 -9 -1 -7 2 -13 8 -13
5 0 10 -7 10 -16 0 -9 5 -12 12 -8 6 4 8 3 5 -3 -8 -12 19 -83 31 -83 4 0 13
-9 20 -21 11 -17 11 -20 0 -14 -7 3 -6 1 3 -7 9 -7 14 -19 12 -25 -3 -7 2 -16
11 -19 9 -3 13 -11 9 -17 -4 -6 2 -8 17 -4 17 4 20 3 11 -6 -15 -15 -14 -30 1
-21 8 5 9 2 5 -10 -4 -10 -3 -15 3 -11 6 4 13 -7 16 -24 4 -17 10 -31 15 -31
5 0 9 -6 9 -13 0 -7 10 -24 23 -37 12 -14 21 -29 19 -33 -1 -5 5 -16 15 -24
10 -8 13 -12 7 -9 -6 3 -11 -1 -11 -9 0 -8 4 -12 9 -9 5 4 12 -3 15 -15 3 -11
10 -18 16 -14 6 4 8 0 4 -10 -4 -10 0 -20 11 -26 9 -6 13 -11 8 -11 -6 0 -1
-7 10 -16 10 -8 13 -12 5 -8 -10 5 -12 3 -5 -7 5 -8 9 -17 9 -21 0 -3 4 -10 9
-15 5 -4 7 -3 3 3 -3 6 0 11 7 11 8 0 12 -7 9 -15 -3 -8 0 -18 8 -23 12 -7 12
-9 0 -9 -8 0 -2 -11 15 -26 16 -15 23 -23 17 -20 -9 5 -11 2 -7 -8 3 -9 11
-16 16 -16 6 0 8 -7 5 -15 -4 -8 4 -22 19 -34 15 -12 26 -31 27 -49 1 -17 4
-30 7 -30 21 1 29 -4 24 -17 -4 -10 0 -15 11 -15 15 0 16 -2 4 -17 -7 -10 -10
-15 -5 -11 12 10 36 -17 36 -41 0 -11 9 -22 21 -26 17 -6 18 -9 7 -23 -7 -9
-8 -13 -2 -9 6 3 16 -5 22 -18 7 -14 16 -25 22 -25 7 0 8 -6 1 -19 -9 -16 -8
-18 12 -14 12 3 18 1 12 -4 -24 -19 -13 -39 18 -34 5 1 6 -8 2 -19 -6 -18 3
-25 27 -21 4 0 3 -10 -2 -24 -7 -19 -6 -23 5 -18 10 3 15 -2 15 -16 0 -12 6
-21 13 -21 8 0 7 -4 -3 -11 -12 -9 -10 -10 8 -6 19 5 21 3 11 -9 -10 -13 -6
-18 13 -15 3 0 5 -11 3 -25 -1 -13 0 -22 3 -20 9 9 32 -23 34 -48 2 -20 5 -23
16 -14 7 6 12 7 11 2 -1 -5 1 -17 4 -27 4 -9 9 -25 13 -34 3 -10 8 -13 12 -8
11 16 44 15 38 -1 -3 -7 0 -16 7 -20 7 -4 9 -4 5 1 -11 12 12 36 26 28 16 -11
36 -12 36 -4 0 4 7 8 15 8 11 0 12 -4 3 -14 -6 -7 -8 -16 -4 -20 3 -3 6 -1 6
6 0 8 8 11 20 8 11 -3 23 0 27 5 3 7 1 8 -5 4 -7 -4 -12 -3 -12 3 0 5 9 9 20
8 14 -1 19 -6 15 -16 -4 -11 -1 -10 14 3 10 9 22 13 25 8 3 -5 20 -8 38 -6 71
9 81 9 86 -5 3 -10 0 -12 -14 -7 -16 6 -17 5 -6 -6 11 -11 15 -10 25 3 7 9 15
17 20 17 4 1 8 2 10 3 14 5 65 4 62 -2 -3 -4 4 -9 14 -12 12 -3 18 0 15 7 -3
7 4 12 16 12 14 0 19 -5 15 -15 -4 -11 -1 -10 14 3 11 10 22 13 25 8 3 -6 14
-9 24 -7 9 1 26 -5 37 -14 18 -15 19 -15 7 1 -9 11 -10 18 -2 23 5 3 10 1 10
-5 0 -6 5 -8 13 -3 6 4 27 8 45 8 25 1 31 -2 27 -13 -4 -11 -2 -12 8 -4 10 9
17 8 27 -1 9 -8 11 -9 6 0 -3 6 -2 14 4 18 5 3 10 1 10 -5 0 -6 5 -8 10 -5 16
10 100 12 100 3 0 -4 -5 -8 -12 -8 -6 0 -8 -3 -4 -7 4 -5 14 1 22 11 8 11 14
14 14 8 0 -13 32 -17 44 -5 3 4 13 8 22 9 11 2 12 -1 4 -11 -8 -10 -8 -15 1
-21 8 -5 9 -3 4 6 -6 10 -4 12 9 7 9 -4 14 -3 11 2 -3 5 -1 12 5 16 5 3 10 2
10 -4 0 -7 8 -7 25 -1 16 6 27 6 31 -2 5 -7 3 -8 -6 -3 -8 5 -11 4 -7 -3 8
-12 32 -10 44 3 4 4 2 5 -4 1 -7 -4 -13 -2 -13 3 0 6 4 11 9 11 14 0 32 -26
23 -35 -4 -5 -1 -5 6 -1 7 4 9 12 6 18 -5 7 -1 9 9 5 9 -3 18 -1 21 6 3 8 5 8
5 -2 1 -11 4 -11 18 0 11 10 14 10 9 2 -8 -14 6 -18 18 -6 10 10 36 13 36 4 0
-12 104 -8 112 4 5 6 8 5 8 -4 0 -11 3 -11 16 0 15 12 16 11 9 -11 -7 -24 -6
-24 8 -5 13 17 72 32 62 14 -3 -4 2 -10 11 -13 8 -3 12 -2 9 3 -3 5 -1 12 5
16 5 3 10 2 10 -4 0 -7 8 -7 25 -1 16 6 27 6 31 -2 5 -7 3 -8 -6 -3 -8 5 -11
4 -7 -3 8 -12 32 -10 44 3 4 4 2 5 -4 1 -7 -4 -13 -2 -13 3 0 18 18 12 36 -11
11 -15 14 -17 11 -6 -4 10 -2 20 3 23 6 4 10 0 10 -7 0 -9 3 -9 10 2 8 13 10
13 10 1 0 -12 3 -12 12 -3 15 15 28 15 28 1 0 -5 -5 -7 -12 -3 -7 4 -8 3 -4
-5 6 -9 11 -9 23 1 18 15 43 19 43 7 0 -5 11 -4 25 1 20 8 25 6 25 -7 0 -15 2
-14 16 3 14 18 15 18 9 -6 -5 -18 -4 -21 3 -11 6 8 17 11 26 8 8 -3 18 -1 22
5 4 7 3 8 -4 4 -7 -4 -12 -2 -12 3 0 14 17 14 25 1 4 -6 12 -7 18 -3 15 9 47
11 47 3 0 -15 -14 -19 -29 -7 -14 11 -14 10 -2 -6 10 -13 17 -15 27 -6 7 6 19
7 26 3 10 -6 10 -5 1 7 -9 12 -5 14 28 14 28 0 39 -4 40 -15 0 -11 2 -11 6 -2
4 10 8 10 21 0 10 -8 13 -9 9 -1 -4 6 -3 14 3 18 9 6 14 -8 11 -28 -1 -5 3 -6
9 -2 6 3 8 10 5 15 -3 5 -1 11 5 15 5 3 10 1 10 -4 0 -6 7 -11 15 -11 8 0 15
6 15 13 0 8 3 8 9 -2 6 -9 15 -11 27 -6 41 18 65 13 47 -11 -5 -5 -1 -1 9 8
11 12 18 14 20 6 3 -7 9 -8 19 -3 8 5 20 10 27 11 11 2 11 0 0 -13 -12 -15
-11 -15 10 -4 12 6 22 9 22 5 0 -3 7 -1 15 6 12 10 16 8 24 -11 l10 -24 1 25
c1 14 4 19 7 12 4 -10 8 -10 21 0 12 10 14 10 8 1 -4 -8 -1 -13 9 -13 9 0 13
5 10 10 -3 6 -2 10 4 10 5 0 11 -5 13 -11 3 -9 10 -9 27 1 20 10 23 10 18 -2
-3 -8 1 -15 9 -15 7 0 10 5 7 10 -4 6 0 8 9 4 9 -3 21 0 27 6 15 15 14 -5 -1
-23 -7 -8 -4 -7 8 3 16 13 23 14 33 4 10 -9 11 -8 6 8 -6 17 -3 16 16 -5 14
-16 20 -19 16 -8 -3 10 -2 20 3 23 6 4 10 1 10 -6 0 -7 3 -9 7 -6 3 4 12 2 20
-5 10 -8 12 -8 8 4 -4 9 0 15 10 15 9 0 14 -6 11 -13 -5 -13 19 -13 31 1 5 4
1 5 -7 0 -8 -5 -12 -4 -7 0 10 11 37 15 37 6 0 -4 -6 -13 -12 -21 -7 -8 -1 -5
13 8 30 26 48 29 28 5 -13 -15 -12 -15 9 -4 12 6 22 8 22 4 0 -4 5 -2 12 5 7
7 17 12 23 12 5 0 3 -5 -5 -10 -12 -8 -11 -10 8 -10 12 0 22 5 22 12 0 9 3 9
11 1 8 -8 20 -8 36 -2 16 6 22 5 18 -1 -8 -12 -3 -13 29 0 22 8 26 7 27 -8 0
-11 2 -13 6 -4 4 10 10 9 26 -5 17 -14 19 -14 9 -1 -9 11 -10 18 -2 23 5 3 10
1 10 -6 0 -8 5 -7 17 2 14 12 16 12 11 -2 -4 -11 0 -15 13 -14 10 1 22 5 26
10 5 4 2 5 -4 1 -7 -4 -13 -2 -13 3 0 18 18 12 36 -11 11 -15 14 -17 11 -6 -4
10 -2 20 3 23 6 4 10 2 10 -4 0 -5 8 -8 18 -6 9 1 25 -2 34 -6 11 -6 19 -5 24
3 4 6 3 8 -4 4 -6 -3 -13 -2 -17 3 -10 18 37 2 51 -16 12 -16 13 -16 8 7 -4
18 -3 21 4 11 7 -9 12 -10 16 -2 4 6 12 11 18 11 6 0 5 -7 -3 -17 -13 -17 -13
-17 13 0 34 22 44 22 27 0 -13 -15 -12 -15 9 -4 12 6 22 9 22 5 0 -3 8 0 17 7
9 8 14 10 11 4 -3 -5 1 -17 10 -25 14 -13 15 -12 10 2 -10 24 3 30 19 10 12
-16 13 -15 6 3 -6 17 -4 18 8 8 9 -7 28 -10 45 -7 46 10 73 5 100 -16 17 -14
18 -14 5 2 -7 10 -10 18 -5 19 5 0 19 2 31 3 12 1 19 -2 16 -7 -3 -5 0 -7 8
-5 8 3 22 1 31 -3 11 -6 19 -5 24 3 4 6 3 8 -4 4 -6 -3 -13 -2 -17 3 -10 18
37 2 51 -16 12 -16 13 -16 8 7 -4 18 -3 21 4 11 7 -9 12 -10 16 -2 4 6 12 11
18 11 7 0 6 -5 -2 -15 -10 -12 -7 -13 17 -6 17 5 37 5 46 0 10 -6 18 -5 23 2
4 7 3 9 -4 5 -6 -3 -13 -2 -16 3 -5 7 22 8 32 1 1 -2 5 -3 10 -4 4 -1 13 -5
21 -10 9 -6 12 -5 8 1 -9 15 13 22 38 13 11 -4 30 -3 43 1 17 7 27 4 44 -13
15 -15 20 -17 15 -5 -3 9 -2 19 3 22 6 4 10 2 10 -3 0 -10 82 -8 98 2 5 3 15
-1 22 -9 10 -12 16 -13 26 -4 8 6 14 8 14 4 0 -4 8 -1 17 6 15 12 16 12 10 -3
-3 -10 -1 -20 5 -24 7 -4 8 -3 4 4 -6 11 19 18 47 13 4 0 7 4 7 10 0 6 8 3 18
-8 9 -10 13 -13 8 -6 -5 8 -4 13 2 13 6 0 16 -8 22 -17 11 -17 11 -17 6 -1 -3
10 -1 20 4 23 6 4 10 2 10 -4 0 -10 45 -5 63 6 6 3 7 1 3 -5 -4 -7 -2 -12 4
-12 6 0 8 -4 5 -10 -10 -16 1 -11 16 7 12 14 12 16 0 8 -10 -6 -12 -4 -6 4 5
9 10 10 18 2 7 -7 16 -7 29 0 10 6 18 6 18 1 0 -14 39 -22 47 -10 3 6 1 8 -5
4 -6 -3 -13 -2 -16 3 -11 18 27 4 42 -15 12 -16 14 -16 9 -2 -3 10 -2 20 3 23
6 4 10 2 10 -4 0 -9 44 -6 61 5 4 2 11 -1 15 -7 5 -8 3 -9 -7 -4 -12 8 -12 6
0 -8 14 -17 26 -24 17 -9 -2 4 -1 14 5 22 5 9 9 10 9 4 0 -7 7 -15 16 -18 8
-3 12 -2 9 4 -3 6 -3 10 2 11 4 0 18 2 31 3 21 3 22 2 5 -18 -17 -19 -17 -20
-1 -7 10 7 24 11 33 8 8 -4 17 -1 21 5 5 7 2 8 -6 3 -9 -5 -11 -4 -6 4 4 6 11
9 15 7 18 -12 66 -14 78 -5 10 9 15 6 22 -12 l10 -24 0 23 c1 21 2 22 17 8 17
-17 28 -21 20 -7 -3 5 1 12 10 15 24 9 31 7 14 -4 -12 -8 -10 -10 10 -10 15 0
32 6 39 13 8 6 11 8 9 2 -3 -5 1 -17 10 -25 14 -13 15 -12 10 2 -7 18 17 34
27 18 3 -6 15 -6 30 0 16 6 27 6 31 -2 5 -7 2 -8 -7 -3 -12 8 -12 6 0 -8 14
-18 22 -22 20 -10 -1 5 -1 15 0 23 1 12 3 12 9 2 9 -13 52 -25 51 -14 -3 19 2
26 10 13 7 -11 13 -11 32 -1 l24 13 -20 -24 c-14 -16 -15 -20 -3 -10 9 7 22
10 27 7 5 -4 13 -1 17 5 5 8 3 9 -6 4 -9 -6 -11 -4 -5 4 5 9 10 10 18 2 7 -7
16 -7 29 0 14 7 23 6 34 -6 14 -13 34 -13 34 1 0 3 -5 2 -12 -2 -7 -5 -8 -3
-4 5 6 9 12 9 25 -3 11 -10 21 -12 31 -6 8 5 17 7 21 4 4 -2 11 0 14 6 5 8 11
8 19 0 7 -5 24 -10 37 -10 65 1 69 1 62 13 -3 7 3 4 14 -6 16 -14 23 -15 29
-6 5 8 3 10 -6 4 -9 -6 -11 -4 -6 4 6 9 13 8 29 -6 11 -10 17 -13 14 -7 -9 15
20 27 29 12 4 -7 3 -8 -4 -4 -8 5 -10 1 -5 -10 5 -15 7 -15 15 0 5 9 14 14 19
11 5 -4 6 -12 3 -18 -4 -7 5 -1 21 13 20 18 26 20 22 8 -4 -12 -2 -15 9 -11 7
3 14 10 14 17 1 6 8 0 16 -14 8 -14 13 -17 10 -8 -3 9 2 19 10 22 9 3 12 1 9
-4 -6 -9 17 -15 40 -10 41 8 50 8 61 -1 8 -7 14 -6 20 2 5 8 3 9 -6 4 -9 -6
-11 -4 -5 4 5 9 14 6 33 -11 15 -13 21 -16 14 -7 -10 14 -10 18 2 22 8 3 20
-1 27 -9 12 -14 14 -14 26 2 7 10 13 13 13 7 0 -16 28 -24 36 -11 5 7 2 8 -6
3 -9 -5 -11 -4 -6 4 6 9 11 9 22 0 8 -6 14 -8 14 -5 0 4 10 2 21 -5 12 -6 19
-7 15 -1 -9 15 47 12 65 -4 13 -12 18 -11 37 6 12 12 22 16 22 10 0 -6 4 -9 9
-5 5 3 13 0 17 -6 5 -9 11 -7 21 6 7 11 13 14 13 8 0 -7 14 -10 35 -8 24 2 33
-1 29 -8 -4 -8 -2 -7 7 1 7 6 24 12 37 12 13 0 21 4 17 9 -3 5 -1 12 5 16 5 3
23 33 38 65 16 33 32 57 34 54 3 -3 8 2 12 11 4 11 2 14 -7 10 -6 -4 -1 3 12
14 13 12 20 21 17 21 -4 0 -2 9 4 20 6 11 16 17 22 14 7 -4 8 -2 4 5 -4 6 0
24 10 39 10 15 17 30 16 35 -1 4 6 7 15 7 12 0 14 3 6 8 -8 5 -8 11 1 24 7 10
16 15 19 11 4 -3 5 4 2 16 -2 13 1 21 10 21 9 0 12 6 8 17 -4 9 -2 14 3 11 5
-4 18 14 29 38 11 24 23 44 28 44 4 0 5 5 2 10 -3 6 -2 10 4 10 6 0 13 11 17
25 3 14 10 25 16 25 5 0 6 5 3 10 -3 6 1 13 9 16 9 3 13 10 10 15 -3 5 0 9 6
9 7 0 10 7 6 15 -3 8 0 14 6 12 5 -1 12 7 14 17 1 10 9 23 16 27 7 5 9 9 5 9
-4 0 6 20 23 44 16 25 30 49 30 55 0 6 4 11 10 11 5 0 6 7 3 17 -4 11 -3 14 5
9 11 -6 17 5 13 27 0 4 3 7 8 7 5 0 20 21 34 48 53 103 59 112 69 112 6 0 8 3
5 6 -3 4 2 18 13 32 11 13 17 28 14 33 -3 5 0 9 5 9 6 0 10 3 10 8 -3 19 2 33
11 27 6 -3 11 -1 11 4 1 6 2 15 3 21 0 5 7 15 14 22 6 6 12 17 12 23 0 6 6 17
13 23 6 7 13 17 13 22 1 6 2 15 3 21 0 5 6 7 11 4 6 -3 10 3 10 15 0 12 4 19
8 16 4 -2 14 4 21 16 7 11 8 17 2 14 -7 -4 -8 -1 -5 8 3 9 10 16 14 16 8 0 23
38 21 52 -1 5 3 8 9 8 5 0 17 16 26 35 9 19 21 35 26 35 6 0 7 7 4 15 -3 9 1
18 10 22 8 3 13 12 10 20 -3 8 -1 11 4 8 9 -6 12 2 9 22 0 3 6 10 15 15 9 5
14 13 11 19 -4 5 -1 9 5 9 6 0 9 4 6 9 -4 5 -1 11 4 13 6 2 12 11 13 19 2 9
10 24 20 33 9 10 17 24 17 32 0 8 4 14 10 14 5 0 6 7 3 17 -4 11 -3 14 5 9 7
-4 14 3 18 19 3 14 10 25 15 25 5 0 9 6 9 13 0 7 15 33 32 57 18 24 26 41 18
36 -8 -4 -6 0 4 8 11 9 16 16 12 16 -4 0 7 20 23 44 17 24 27 46 24 50 -4 3
-1 6 6 6 7 0 17 13 22 30 6 16 15 30 20 30 5 0 8 3 7 7 -3 14 25 63 35 63 6 0
7 3 4 6 -4 4 4 21 16 38 12 17 23 34 23 39 1 4 2 12 3 18 0 5 6 7 13 3 6 -4 8
-3 5 3 -4 6 2 22 13 35 11 14 16 28 13 32 -3 3 -1 6 6 6 7 0 9 4 6 10 -3 5 3
15 15 22 11 7 20 20 20 30 0 9 6 23 13 30 6 7 21 30 31 50 11 22 23 35 30 31
7 -4 6 -1 -1 8 -10 12 -8 17 8 27 11 7 17 17 14 22 -3 6 -1 10 4 10 6 0 11 7
11 15 0 8 5 15 10 15 6 0 9 3 8 8 -3 12 24 62 31 57 4 -2 8 6 8 18 1 11 9 24
17 29 8 5 13 15 10 23 -4 8 -1 15 5 15 6 0 19 18 28 40 10 22 21 40 25 40 5 0
8 5 8 11 0 6 9 24 21 40 11 16 17 29 14 29 -4 0 1 7 9 16 9 8 14 20 10 25 -3
5 -2 8 3 7 4 -2 8 -1 9 2 3 19 27 50 34 45 6 -3 7 1 4 10 -4 9 1 24 10 34 9
10 13 21 9 24 -3 4 1 7 10 7 10 0 16 3 16 8 -4 21 3 32 19 33 10 0 12 3 4 6
-9 3 -8 11 6 31 10 15 22 35 25 45 4 9 11 17 17 17 6 0 9 4 6 9 -3 5 3 20 14
34 11 14 20 28 20 32 0 4 9 20 21 36 11 16 17 29 13 29 -4 0 1 7 12 16 10 8
12 13 4 9 -10 -4 -9 -2 2 8 10 8 15 17 11 20 -3 4 -1 7 5 7 7 0 12 6 12 14 0
8 5 16 10 18 6 2 12 14 15 27 2 14 10 28 17 32 7 5 14 13 14 19 1 5 2 15 3 21
0 5 6 7 11 4 6 -3 10 3 10 14 0 12 5 21 11 21 5 0 7 4 4 10 -3 5 -1 10 4 10 6
0 11 7 11 16 0 9 5 12 12 8 7 -5 8 -3 4 5 -5 7 -1 20 8 29 9 11 13 27 10 40
-5 18 -10 20 -25 11 -13 -6 -19 -6 -19 0 0 6 -8 7 -17 4 -10 -4 -33 -6 -53 -5
-19 1 -42 2 -50 2 -8 0 -26 0 -40 1 -14 0 -32 0 -40 0 -8 -1 -26 -1 -40 0 -34
1 -40 1 -72 -4 -16 -2 -28 0 -28 4 0 5 -12 4 -27 -2 -19 -7 -28 -6 -33 2 -6 8
-9 7 -13 -2 -4 -10 -6 -10 -6 -2 -1 9 -8 10 -28 2 -19 -7 -28 -6 -33 2 -6 8
-9 8 -14 0 -5 -7 -13 -8 -24 -2 -11 6 -25 5 -37 -1 -14 -8 -20 -8 -23 0 -2 7
-8 12 -13 12 -6 0 -8 -3 -6 -7 3 -5 -6 -9 -19 -9 -13 -1 -24 2 -24 7 0 5 -5 9
-11 9 -5 0 -8 -3 -6 -8 3 -4 -6 -8 -19 -8 -13 -1 -24 2 -24 7 0 5 -5 9 -11 9
-5 0 -8 -3 -6 -7 3 -5 -6 -9 -19 -9 -13 -1 -24 2 -24 7 0 5 -5 9 -11 9 -5 0
-8 -3 -6 -7 3 -5 -6 -9 -19 -9 -13 -1 -24 2 -24 8 0 5 -4 7 -9 3 -17 -10 -71
-13 -71 -3 0 5 -4 7 -9 3 -17 -10 -71 -13 -77 -4 -3 5 -15 4 -26 -2 -15 -8
-22 -8 -28 1 -5 8 -13 9 -21 4 -19 -12 -49 -12 -49 -1 0 5 -6 4 -14 -2 -10 -8
-16 -9 -21 -1 -4 7 -13 7 -28 -1 -16 -9 -22 -9 -25 -1 -3 9 -9 9 -24 1 -16 -9
-19 -8 -13 2 5 8 4 10 -4 5 -19 -12 -61 -14 -61 -4 0 5 -4 7 -9 3 -17 -10 -71
-13 -71 -3 0 5 -4 7 -9 3 -17 -10 -91 -13 -91 -4 0 6 -8 5 -20 -1 -15 -8 -20
-8 -20 2 0 8 -3 9 -8 3 -10 -14 -32 -17 -32 -4 0 8 -6 7 -17 -2 -13 -11 -17
-11 -20 -2 -3 9 -10 10 -24 3 -14 -8 -19 -7 -19 2 0 10 -2 10 -9 -1 -6 -9 -11
-10 -15 -2 -5 8 -13 8 -29 0 -16 -9 -22 -9 -25 0 -2 6 -8 11 -13 11 -6 0 -8
-3 -6 -8 3 -4 -6 -8 -19 -8 -13 -1 -24 2 -24 8 0 5 -4 7 -9 3 -17 -10 -71 -13
-71 -3 0 5 -4 7 -9 3 -17 -10 -71 -13 -77 -4 -3 5 -15 4 -27 -2 -16 -9 -22 -9
-25 -1 -3 9 -9 9 -23 2 -14 -8 -19 -7 -19 2 0 10 -2 10 -9 0 -11 -17 -21 -17
-32 0 -7 10 -9 10 -9 0 0 -7 -4 -11 -8 -8 -12 7 -44 -33 -37 -44 4 -6 1 -10
-4 -10 -6 0 -11 -6 -11 -14 0 -8 -7 -16 -15 -20 -8 -3 -14 -9 -13 -13 3 -11
-34 -73 -44 -73 -4 0 -5 -7 -2 -15 4 -8 -1 -17 -10 -21 -9 -3 -14 -9 -11 -14
6 -10 -40 -71 -48 -64 -4 4 -5 -3 -2 -15 2 -11 0 -21 -5 -21 -4 0 -13 -13 -19
-30 -5 -16 -14 -30 -19 -30 -6 0 -9 -8 -8 -18 0 -9 -4 -16 -9 -15 -6 1 -12 -7
-12 -18 -1 -10 -8 -26 -15 -34 -27 -30 -38 -45 -38 -50 1 -28 -1 -35 -10 -30
-5 3 -10 -3 -10 -14 0 -12 -3 -21 -8 -21 -4 0 -12 -10 -17 -23 -6 -12 -17 -21
-25 -19 -11 3 -11 0 -1 -12 10 -11 8 -18 -10 -35 -13 -11 -20 -24 -16 -27 4
-4 -3 -15 -15 -25 -11 -11 -16 -19 -9 -19 6 0 -1 -13 -17 -28 -16 -15 -27 -33
-25 -39 2 -6 -2 -17 -9 -24 -7 -8 -24 -35 -38 -61 -14 -27 -28 -48 -31 -48 -4
0 -10 -12 -14 -27 -3 -15 -14 -33 -23 -41 -11 -9 -12 -11 -2 -6 9 4 7 -2 -6
-17 -29 -35 -56 -79 -47 -79 5 0 3 -4 -4 -8 -6 -4 -13 -14 -15 -22 -2 -8 -12
-23 -22 -32 -10 -10 -16 -18 -11 -18 4 0 2 -6 -4 -13 -6 -8 -8 -17 -4 -20 3
-4 1 -7 -6 -7 -7 0 -17 -13 -22 -30 -6 -16 -15 -30 -20 -30 -5 0 -9 -9 -9 -20
0 -11 -7 -23 -16 -27 -8 -3 -13 -11 -10 -19 3 -7 2 -14 -2 -16 -4 -2 -18 -16
-32 -31 -22 -25 -22 -27 -5 -22 16 6 15 3 -5 -14 -14 -11 -20 -21 -15 -21 6 0
2 -5 -8 -11 -9 -6 -15 -14 -12 -20 4 -5 -1 -12 -9 -15 -9 -3 -13 -10 -10 -15
3 -5 0 -9 -5 -9 -6 0 -10 -3 -9 -7 3 -14 -25 -62 -33 -57 -4 2 -6 -5 -4 -16 2
-12 -2 -23 -10 -27 -8 -3 -15 -11 -15 -18 0 -7 -7 -18 -15 -25 -9 -7 -13 -15
-10 -18 3 -3 -4 -11 -15 -19 -22 -15 -28 -38 -7 -28 6 4 3 -1 -7 -9 -11 -9
-17 -18 -14 -22 4 -3 -2 -14 -13 -25 -11 -11 -17 -24 -14 -28 2 -5 -2 -11 -10
-15 -8 -3 -15 -13 -15 -23 0 -14 -2 -15 -9 -5 -6 10 -10 8 -15 -10 -6 -21 -7
-22 -20 -5 -7 9 -18 17 -25 17 -6 0 -11 -8 -12 -17 0 -15 -2 -15 -9 2 -6 14
-9 15 -10 5 -1 -10 -4 -9 -10 5 l-9 20 0 -20 c-1 -16 -3 -17 -10 -6 -7 11 -10
10 -14 -5 -4 -15 -5 -14 -7 6 -1 23 -2 23 -10 5 -5 -11 -9 -15 -9 -9 -1 6 -14
9 -30 6 -16 -2 -32 1 -35 7 -4 5 -13 8 -21 5 -8 -4 -12 -11 -9 -16 4 -6 -2 -5
-14 1 -28 15 -32 14 -26 -6 5 -16 4 -16 -6 0 -11 18 -12 18 -26 0 -8 -10 -14
-13 -13 -8 3 21 -2 24 -26 15 -13 -5 -26 -6 -29 -2 -3 5 -19 7 -35 6 -17 -1
-34 2 -37 7 -3 6 -11 6 -19 -1 -8 -6 -19 -10 -27 -9 -36 5 -69 -2 -62 -13 4
-7 3 -8 -5 -4 -6 4 -9 11 -6 16 3 5 0 12 -6 16 -7 4 -10 3 -7 -2 3 -5 0 -15
-8 -22 -11 -10 -14 -10 -14 1 0 7 -7 14 -15 14 -8 0 -12 -4 -9 -9 3 -4 0 -8
-5 -8 -6 0 -11 4 -11 8 0 10 -123 8 -139 -2 -5 -4 -12 -2 -16 4 -3 5 -11 10
-16 10 -6 0 -7 -6 -3 -12 5 -9 2 -9 -9 1 -13 10 -17 10 -17 1 0 -9 -4 -9 -17
1 -15 12 -16 12 -10 -3 3 -10 2 -18 -3 -18 -6 0 -10 7 -10 15 0 8 -5 15 -11
15 -5 0 -7 -5 -3 -11 4 -8 1 -8 -13 -1 -11 6 -25 7 -33 2 -10 -6 -21 -3 -33 7
-17 16 -17 16 -11 -2 5 -11 3 -16 -2 -12 -6 3 -29 8 -53 11 -36 4 -42 2 -36
-12 5 -13 2 -13 -15 3 -12 11 -20 13 -20 6 0 -7 -5 -9 -10 -6 -6 4 -7 11 -4
17 5 7 2 8 -5 4 -7 -5 -10 -15 -7 -23 4 -9 2 -11 -7 -6 -6 4 -17 8 -23 9 -6 1
-22 5 -34 9 -15 5 -20 3 -16 -3 3 -6 2 -14 -4 -17 -6 -4 -10 -3 -9 2 4 22 -2
25 -16 7 -9 -10 -14 -13 -13 -5 2 7 -3 16 -11 19 -9 3 -11 0 -6 -8 6 -9 3 -9
-15 0 -20 11 -22 10 -17 -4 4 -9 4 -16 1 -16 -2 0 -9 10 -14 23 -7 18 -9 18
-9 4 -1 -12 -5 -15 -13 -11 -19 12 -88 11 -88 0 0 -6 -8 -2 -17 9 -15 20 -15
20 -10 -3 4 -19 3 -21 -8 -12 -7 6 -35 12 -62 13 -26 2 -54 7 -62 11 -10 6
-12 5 -7 -2 5 -9 -10 -11 -53 -8 -40 2 -61 -1 -61 -8 0 -6 -5 -4 -10 4 -7 11
-10 11 -10 2 0 -10 -5 -10 -22 -1 -18 9 -20 9 -15 -4 3 -8 1 -14 -6 -13 -22 3
-37 17 -31 29 3 7 0 5 -8 -3 -14 -17 -48 -15 -60 4 -5 6 -8 1 -8 -12 0 -20 -2
-21 -14 -9 -11 10 -37 13 -106 11 -50 -2 -95 -6 -100 -9 -4 -3 -20 -1 -34 5
-18 7 -26 6 -26 -2 0 -6 -8 -4 -19 6 -14 12 -21 14 -26 6 -4 -7 -15 -10 -25
-7 -11 3 -21 -2 -25 -11 -5 -12 -10 -11 -32 9 -15 13 -22 17 -16 9 9 -12 7
-15 -17 -15 -15 0 -26 3 -24 7 2 4 0 9 -6 13 -5 3 -10 -1 -10 -10 0 -9 -4 -14
-8 -11 -16 10 -62 15 -57 6 3 -5 1 -11 -5 -15 -6 -3 -10 4 -11 17 0 22 -1 22
-9 3 -5 -11 -9 -15 -9 -10 -1 12 -121 14 -121 2 0 -5 -6 -5 -12 0 -15 9 -138
11 -138 2 0 -4 -7 -10 -16 -13 -13 -5 -14 -3 -6 6 8 10 -1 13 -44 13 -39 0
-53 -3 -49 -13 2 -6 0 -12 -5 -12 -6 0 -10 7 -10 15 0 8 -4 15 -10 15 -5 0
-10 -5 -10 -11 0 -5 -5 -7 -12 -3 -6 4 -26 7 -45 8 -24 1 -32 -3 -28 -12 3 -8
0 -12 -7 -9 -7 2 -12 9 -11 14 1 6 -10 8 -24 5 -20 -4 -24 -2 -19 9 4 8 1 6
-7 -3 -8 -10 -17 -15 -20 -11 -11 10 -77 9 -81 -2 -3 -5 -5 -4 -5 4 -1 11 -5
10 -17 -5 -8 -10 -13 -13 -9 -6 4 8 -1 12 -14 12 -12 0 -23 -1 -24 -2 -2 -2
-11 3 -19 9 -15 13 -28 8 -28 -11 0 -6 5 -4 10 4 5 8 10 10 10 4 0 -21 -13
-23 -38 -6 -25 16 -26 16 -19 -3 6 -18 6 -18 -6 -3 -12 15 -14 15 -25 0 -7 -9
-10 -11 -7 -4 4 7 -1 12 -10 12 -10 0 -14 5 -10 13 4 6 0 4 -8 -5 -8 -10 -17
-15 -20 -11 -4 3 -22 6 -42 7 -25 1 -35 -3 -36 -14 0 -10 -3 -8 -9 5 -5 11 -9
15 -9 9 -1 -14 -73 -8 -83 8 -5 10 -8 8 -8 -5 0 -15 -3 -16 -20 -7 -15 8 -20
8 -20 -1 0 -8 -4 -8 -15 1 -9 7 -15 8 -15 2 0 -5 -7 -13 -16 -16 -13 -5 -14
-4 -6 7 9 11 7 13 -11 13 -12 -1 -25 -8 -29 -16 -5 -12 -7 -11 -7 4 -1 20 -1
20 -17 0 -8 -10 -13 -13 -9 -6 4 8 -3 12 -22 13 -15 1 -35 2 -43 3 -8 0 -18
-6 -22 -14 -6 -13 -7 -12 -7 1 -1 14 -9 16 -42 13 -23 -2 -45 -7 -50 -10 -5
-3 -9 1 -10 8 0 7 -4 4 -9 -7 -7 -16 -9 -17 -9 -3 -1 14 -6 15 -32 8 -26 -8
-30 -7 -25 6 3 9 1 12 -4 9 -6 -3 -10 -13 -10 -21 0 -13 -2 -13 -16 1 -15 14
-17 14 -31 -2 -11 -13 -13 -14 -10 -3 4 13 -2 15 -29 12 -19 -2 -34 -9 -34
-14 0 -5 -8 -2 -17 8 -17 16 -18 16 -21 1 -2 -10 -8 -15 -13 -11 -5 3 -7 9 -4
14 3 5 -8 5 -25 0 -37 -11 -40 -10 -62 1 -14 8 -16 6 -12 -8 3 -11 0 -8 -8 5
-8 12 -17 19 -21 16 -4 -4 -7 0 -7 9 0 10 -5 17 -11 17 -5 0 -7 5 -4 10 3 6 1
10 -5 10 -6 0 -8 5 -5 10 3 6 1 10 -4 10 -6 0 -11 7 -11 16 0 9 -5 12 -13 8
-9 -6 -9 -4 0 7 7 7 13 18 13 23 0 6 -5 4 -10 -4 -9 -13 -10 -13 -11 0 -1 8
-1 18 0 23 0 4 -9 7 -21 7 -17 0 -19 3 -9 9 17 11 6 31 -17 31 -15 0 -15 2 -2
10 13 8 13 10 -2 10 -12 0 -15 5 -11 17 4 10 2 14 -4 10 -7 -5 -9 0 -6 12 3
11 -2 21 -11 24 -9 4 -16 16 -16 27 0 12 -4 18 -10 15 -5 -3 -10 1 -10 9 0 9
-6 16 -12 16 -9 0 -8 4 2 10 13 8 13 10 -2 10 -9 0 -20 5 -24 12 -5 7 -2 8 7
3 11 -6 12 -5 2 6 -7 7 -13 20 -13 29 0 8 -9 22 -19 30 -11 7 -18 17 -15 22 3
4 -2 11 -10 14 -9 3 -16 10 -16 16 0 5 5 6 11 3 6 -4 5 2 -3 14 -7 12 -18 21
-25 21 -6 0 -10 9 -8 20 2 11 0 20 -4 20 -5 0 -11 9 -14 21 -3 12 -10 18 -16
15 -5 -4 -13 -1 -17 5 -4 8 -3 9 4 5 7 -4 12 -4 12 1 0 8 -50 87 -70 110 -5 7
-7 18 -4 26 3 8 -2 17 -12 21 -15 6 -15 4 -3 -11 13 -16 12 -17 -4 -4 -9 8
-15 16 -12 19 3 3 -3 14 -12 24 -16 18 -16 18 2 12 13 -5 16 -4 11 4 -4 7 -14
12 -21 12 -9 0 -12 6 -8 17 4 11 3 14 -5 9 -11 -6 -17 5 -13 27 0 4 -3 7 -8 7
-6 0 -8 9 -6 21 4 18 2 19 -12 7 -14 -11 -15 -10 -9 9 6 19 4 21 -16 18 -22
-4 -22 -4 -4 10 11 8 14 15 7 15 -7 0 -9 4 -6 10 4 6 -1 7 -12 3 -10 -3 -15
-2 -10 2 4 5 -1 17 -10 28 -10 11 -13 17 -6 14 6 -4 15 -3 18 3 4 6 3 10 -2 9
-28 -5 -34 1 -22 24 11 19 10 20 -2 10 -13 -10 -17 -7 -28 22 -7 21 -17 33
-23 29 -7 -5 -9 -1 -5 9 3 9 -1 18 -10 21 -10 4 -13 14 -10 27 3 12 3 18 0 15
-4 -3 -11 4 -18 17 -6 12 -17 21 -23 20 -7 -2 -11 7 -9 20 1 14 -3 21 -11 19
-9 -2 -12 4 -8 15 6 19 -5 44 -20 46 -5 1 -8 10 -8 20 1 11 -4 16 -11 13 -8
-3 -11 2 -8 15 3 11 -1 21 -11 25 -9 3 -13 10 -10 15 3 5 0 9 -6 9 -6 0 -8 5
-5 10 4 6 1 9 -7 8 -8 -2 -12 5 -11 19 2 17 -1 21 -14 16 -11 -4 -14 -3 -9 6
5 7 0 21 -11 33 -12 15 -13 19 -3 14 8 -4 5 1 -7 12 -24 21 -31 38 -11 26 7
-4 8 -3 4 5 -6 9 -11 9 -24 -1 -14 -12 -14 -10 -3 11 8 15 9 21 2 17 -6 -4
-11 -2 -11 4 0 6 -4 9 -8 6 -5 -3 -9 1 -9 9 0 8 4 12 9 9 4 -3 8 0 8 5 0 6
-10 11 -22 11 -19 0 -20 2 -8 10 11 7 11 10 2 10 -8 0 -10 5 -6 12 5 7 2 9 -8
6 -8 -4 -15 0 -15 8 0 7 5 11 10 7 5 -3 4 4 -2 15 -6 12 -17 24 -24 28 -7 5
-6 0 3 -12 14 -18 14 -18 -2 -5 -10 7 -15 17 -12 23 3 5 -4 18 -17 29 -14 12
-17 19 -8 19 11 0 11 2 -1 10 -8 5 -11 10 -6 10 5 0 4 6 -2 13 -6 6 -10 16
-10 20 0 5 -4 12 -8 15 -4 4 -4 1 0 -5 4 -8 1 -13 -8 -13 -9 0 -13 6 -10 14 3
7 -1 20 -8 27 -7 8 -15 23 -16 34 -2 11 -10 24 -18 28 -8 5 -12 12 -9 18 4 5
1 9 -4 9 -6 0 -10 6 -9 13 2 6 -3 11 -11 9 -12 -3 -12 0 -1 12 12 16 4 22 -23
17 -5 -1 -6 8 -2 19 5 15 2 20 -11 20 -14 0 -14 3 -4 16 11 13 10 16 -8 21
-20 5 -26 15 -23 36 0 4 -3 7 -9 7 -5 0 -10 9 -10 20 0 11 -5 20 -11 20 -5 0
-7 5 -3 12 5 8 2 9 -11 4 -15 -5 -16 -4 -6 8 10 12 8 16 -8 21 -21 6 -24 24
-6 37 6 5 3 8 -7 8 -18 0 -52 53 -41 63 3 4 -2 9 -11 13 -9 3 -16 17 -16 30 0
18 -6 24 -21 24 -18 0 -19 2 -9 15 9 10 9 15 1 15 -6 0 -11 7 -11 15 0 8 -4
15 -10 15 -5 0 -10 7 -10 15 0 8 -4 15 -10 15 -5 0 -10 7 -10 15 0 8 -5 15
-11 15 -6 0 -9 9 -6 20 4 15 0 20 -13 20 -14 0 -17 5 -12 22 3 14 2 19 -6 14
-7 -4 -12 -2 -12 4 0 6 -5 8 -12 4 -7 -4 -8 -3 -4 5 4 6 12 9 17 6 5 -3 6 1 3
9 -3 9 -10 13 -15 10 -5 -3 -9 2 -9 10 0 9 -6 16 -12 16 -10 0 -9 3 1 9 11 7
9 10 -8 16 -11 3 -21 11 -21 16 0 6 5 7 12 3 7 -4 8 -3 4 4 -4 7 -14 12 -22
12 -8 0 -14 5 -14 11 0 5 5 7 11 4 6 -4 5 2 -2 13 -7 12 -18 18 -24 14 -5 -3
-4 1 3 10 11 14 10 18 -6 27 -11 6 -22 7 -26 3 -4 -3 -4 2 0 12 5 14 4 17 -5
11 -10 -5 -11 -2 -6 14 4 14 2 21 -8 21 -8 0 -13 10 -13 23 1 14 -5 22 -15 21
-11 -1 -15 5 -12 17 4 13 0 19 -13 20 -18 0 -18 1 1 9 18 8 18 9 2 9 -10 1
-16 4 -14 9 7 10 -19 32 -29 24 -5 -4 -2 1 5 11 13 16 12 19 -8 24 -17 4 -19
8 -9 14 10 7 11 9 0 9 -8 0 -10 5 -6 12 5 7 2 9 -7 6 -10 -4 -15 1 -17 15 0
12 -6 23 -12 25 -5 2 -10 13 -10 23 0 13 -4 18 -12 13 -6 -4 -8 -3 -4 4 3 6
-1 17 -9 25 -11 12 -12 17 -2 20 7 3 4 6 -6 6 -10 1 -15 5 -12 11 3 6 1 10 -4
10 -6 0 -11 9 -11 19 0 10 -7 21 -15 25 -9 3 -12 12 -8 22 4 12 3 15 -5 10 -7
-4 -12 -1 -12 9 0 9 -4 14 -8 11 -4 -2 -9 5 -9 17 -1 12 -7 23 -13 25 -5 2 -8
8 -4 13 3 5 -2 9 -10 9 -9 0 -13 6 -10 14 3 8 0 17 -7 22 -8 5 -10 3 -4 -6 5
-9 4 -11 -3 -6 -9 5 -9 13 -1 29 7 12 8 19 4 15 -9 -8 -35 16 -35 32 0 6 -4 9
-9 6 -4 -3 -7 6 -5 20 2 19 -3 28 -16 31 -12 3 -17 12 -15 25 3 14 0 18 -10
14 -9 -3 -12 1 -10 15 2 11 0 17 -6 14 -5 -4 -9 -1 -9 5 0 6 -5 8 -12 4 -7 -5
-8 -3 -2 7 4 8 9 20 10 27 2 10 -1 11 -12 1 -12 -10 -13 -9 -8 6 6 14 4 16 -6
10 -10 -6 -12 -3 -8 13 4 16 2 22 -9 22 -11 0 -14 7 -11 25 3 13 2 22 -3 20
-4 -3 -11 -1 -14 5 -4 6 -1 9 7 8 7 -2 12 3 11 10 -3 11 9 16 28 14 4 -1 4 8
1 20 -3 13 1 26 13 34 10 7 15 20 12 28 -4 9 -2 15 2 13 5 -1 9 2 9 7 0 5 6
12 14 17 7 5 14 13 14 19 1 5 2 15 3 21 0 5 5 8 10 4 5 -3 11 7 13 22 2 16 8
27 15 26 6 -1 14 4 17 13 3 8 1 12 -4 9 -6 -3 -7 1 -4 9 3 9 11 13 17 9 6 -4
8 2 5 15 -3 12 -3 21 1 20 3 0 13 0 21 1 13 1 13 2 0 11 -11 7 -11 10 -2 10 7
0 11 4 8 8 -3 5 4 15 14 22 16 11 17 17 7 29 -8 10 -8 13 -1 8 7 -4 15 1 18
10 6 15 8 15 16 3 13 -21 12 -3 -1 22 -6 12 -7 18 -1 14 5 -3 16 2 23 11 12
14 12 16 -1 9 -11 -6 -11 -4 1 6 9 7 19 23 23 35 4 11 13 24 21 26 8 4 11 14
8 28 -4 15 -3 20 5 15 7 -4 12 -1 12 9 0 9 4 13 10 10 5 -3 7 0 4 8 -3 8 3 17
13 21 15 6 15 8 3 16 -13 8 -13 10 1 10 10 0 16 7 15 17 0 10 4 18 11 18 6 0
15 4 20 9 5 5 3 6 -4 2 -7 -4 -13 -2 -13 3 0 6 5 11 11 11 6 0 9 7 5 15 -5 13
5 19 25 17 4 -1 5 8 2 18 -4 15 0 20 13 20 16 0 17 2 4 10 -10 6 -11 10 -2 10
6 0 12 7 12 15 0 8 5 15 11 15 6 0 9 7 5 15 -3 9 0 15 9 15 7 0 17 5 21 12 4
7 3 8 -4 4 -7 -4 -4 7 6 23 9 17 24 31 32 31 13 0 13 1 0 10 -14 9 -7 14 13
11 4 -1 3 8 -3 19 -6 11 -7 20 -3 19 4 -1 15 -1 23 0 13 1 13 2 0 11 -12 8
-12 10 3 16 9 3 14 10 11 15 -3 5 2 9 10 9 19 0 22 20 4 20 -7 0 -5 5 5 11 9
5 17 17 17 24 0 8 3 14 8 14 19 -3 25 2 12 11 -10 6 -11 10 -2 10 6 0 12 7 12
16 0 8 5 12 10 9 9 -6 14 8 11 28 -1 4 6 15 14 23 8 9 12 20 9 26 -4 6 -2 8 4
4 6 -3 13 3 17 14 4 12 11 17 18 13 7 -4 6 1 -2 10 -8 10 -9 17 -3 17 6 0 14
9 17 20 4 11 11 17 17 14 6 -4 9 -1 6 7 -2 7 3 20 12 29 9 8 10 11 3 6 -10 -6
-12 -4 -7 8 3 9 10 16 15 16 5 0 9 6 9 14 0 8 7 17 16 20 13 5 14 9 4 21 -10
12 -8 13 10 10 18 -3 20 -2 10 10 -11 14 -7 19 12 17 3 -1 9 5 12 13 3 8 0 15
-6 15 -6 0 0 10 13 23 13 12 24 29 24 37 0 8 6 14 14 12 8 -2 11 3 8 12 -4 9
1 19 9 24 9 5 15 11 15 13 -3 10 24 69 31 69 4 0 8 10 8 23 0 18 2 19 10 7 8
-13 10 -13 11 3 3 34 4 38 17 46 7 4 14 18 15 30 1 13 6 20 14 17 7 -3 12 -2
11 2 -3 16 15 61 23 56 5 -3 9 4 9 15 0 11 5 23 10 26 6 4 8 11 4 16 -3 5 0 8
6 7 7 -2 14 6 16 16 1 10 8 22 15 26 6 5 9 15 6 24 -4 9 -3 15 1 15 20 -3 33
2 27 11 -3 6 0 10 7 10 9 0 9 3 -2 10 -14 9 -7 15 14 11 5 -1 6 7 3 19 -3 11
-2 18 3 15 8 -5 25 24 21 38 0 4 6 10 14 13 8 3 12 10 9 15 -3 5 0 9 6 9 7 0
10 6 7 14 -6 14 27 48 38 38 3 -4 3 1 0 10 -4 9 2 25 12 37 10 12 18 25 18 29
2 21 18 51 30 56 9 3 12 12 8 22 -4 12 -3 15 5 10 7 -4 12 -1 12 8 0 9 5 16
12 16 6 0 8 3 5 7 -4 3 4 21 18 38 13 18 21 35 18 39 -4 3 -1 6 5 6 7 0 11 6
10 13 -2 6 2 11 7 10 6 -1 12 8 12 20 1 12 7 23 13 25 5 2 8 8 4 13 -3 5 0 9
7 9 7 0 10 3 6 6 -3 3 3 15 14 27 10 11 19 27 19 34 0 7 5 13 11 13 6 0 9 7 5
15 -3 9 0 15 10 15 8 0 12 5 9 10 -3 6 -1 10 5 10 6 0 8 5 5 10 -3 6 -1 10 5
10 6 0 9 4 5 10 -3 5 3 18 14 29 11 11 17 22 13 25 -3 3 0 6 7 6 7 0 9 5 6 10
-3 6 -2 10 4 10 6 0 13 11 17 25 3 14 11 25 17 25 6 0 7 3 4 7 -4 3 1 12 11
20 9 8 11 11 4 8 -11 -6 -11 -3 0 14 7 12 16 21 20 21 5 0 8 9 8 20 0 10 8 24
18 29 9 6 13 11 9 11 -4 0 -2 6 5 14 7 8 18 11 23 8 6 -3 4 1 -2 9 -10 13 -9
20 8 37 11 12 17 27 14 32 -4 6 -2 9 3 8 6 -2 11 2 13 7 1 6 9 16 18 23 9 8
10 10 2 7 -9 -5 -8 1 4 19 10 14 21 26 26 26 5 0 6 6 3 14 -3 7 1 20 8 28 36
38 52 61 38 53 -8 -4 -5 3 6 16 12 13 19 30 17 37 -3 6 0 12 6 12 5 0 18 16
27 35 9 19 21 35 26 35 6 0 8 7 4 15 -3 10 1 15 12 16 9 0 12 3 5 5 -8 4 -6
11 8 25 10 10 19 26 19 34 0 8 4 15 9 15 9 0 24 38 22 54 -1 5 6 5 16 2 9 -4
14 -4 10 0 -4 4 -1 14 6 22 10 13 9 14 -3 7 -8 -4 -5 2 8 14 12 12 22 29 22
37 0 8 9 24 20 36 11 12 20 18 20 13 0 -5 7 0 16 11 8 10 13 14 10 7 -4 -6 -2
-14 4 -18 5 -3 10 0 11 7 0 7 4 4 9 -7 8 -18 9 -18 9 -2 1 15 4 16 22 6 15 -8
19 -8 15 0 -4 6 -3 11 3 11 5 0 12 -6 14 -12 3 -7 6 -8 6 -3 1 10 93 10 118 1
7 -3 13 0 13 7 0 8 4 6 10 -3 5 -8 10 -10 10 -4 0 6 13 9 30 6 18 -2 28 -9 24
-16 -3 -6 2 -2 10 8 12 15 16 16 16 5 0 -11 2 -12 9 0 6 9 11 10 15 2 4 -6 15
-7 30 -1 12 4 29 4 36 0 8 -5 18 -6 23 -3 12 7 303 6 316 -1 6 -4 11 -2 11 5
0 8 5 7 17 -2 11 -10 14 -10 9 -1 -4 6 -3 12 3 12 5 0 12 -6 14 -12 4 -10 6
-9 6 1 1 11 4 11 16 1 8 -7 15 -8 15 -3 0 11 42 9 59 -2 6 -3 11 -1 11 6 0 8
4 8 13 2 6 -6 21 -9 32 -6 44 8 81 8 93 0 8 -6 12 -5 12 4 0 11 2 11 10 -1 5
-8 10 -10 10 -5 0 12 70 12 88 1 7 -4 12 -2 13 6 0 7 4 4 9 -7 8 -19 9 -19 9
-1 1 16 3 17 18 5 11 -9 14 -10 9 -2 -5 10 1 11 26 6 18 -3 39 -10 45 -16 9
-6 15 -5 18 5 6 15 43 17 64 3 6 -3 11 -2 11 3 0 5 13 7 30 4 18 -2 28 -9 24
-16 -3 -6 2 -2 10 8 12 15 16 16 16 5 0 -8 3 -10 8 -4 8 12 72 13 90 1 7 -4
12 -2 12 5 0 8 5 7 17 -2 14 -12 16 -12 9 1 -4 8 0 6 10 -5 14 -17 16 -17 11
-2 -5 14 -2 16 21 11 15 -3 33 -7 40 -10 6 -2 12 1 12 6 0 5 13 5 30 0 17 -5
30 -5 30 0 0 10 40 1 58 -13 9 -7 11 -6 6 6 -5 14 -1 15 25 7 22 -6 31 -5 31
3 0 7 4 6 10 -3 8 -12 10 -12 10 -1 0 11 5 10 25 -3 23 -15 24 -15 18 1 -6 16
-5 16 10 4 14 -11 17 -11 17 0 0 11 2 11 10 -1 7 -11 10 -11 10 -2 0 10 5 10
21 1 16 -8 23 -8 29 1 6 9 9 9 13 -1 4 -11 6 -11 6 -1 1 9 6 10 20 2 13 -7 20
-7 23 1 2 7 12 7 31 0 20 -8 27 -7 27 2 0 8 4 7 10 -3 7 -11 10 -11 10 -2 0
10 5 10 20 2 15 -8 20 -8 20 2 0 9 3 9 10 -2 5 -8 10 -10 10 -5 0 6 11 10 24
10 13 0 22 -3 19 -7 -2 -5 1 -8 6 -8 6 0 11 3 11 8 0 4 11 7 24 7 13 0 22 -3
20 -6 -2 -4 3 -9 11 -12 8 -4 12 -1 9 6 -2 7 5 12 20 12 13 0 22 -3 19 -7 -2
-5 1 -8 6 -8 6 0 11 3 11 8 0 4 11 7 24 7 16 0 22 -5 19 -15 -4 -13 -3 -13 9
0 13 15 61 23 52 8 -3 -4 0 -8 5 -8 6 0 11 3 11 8 0 8 108 7 117 -2 3 -3 13 0
21 7 13 9 14 9 8 0 -4 -7 -2 -13 3 -13 6 0 11 3 11 8 0 4 11 7 24 7 13 0 22
-3 20 -7 -2 -4 0 -9 6 -13 5 -3 10 1 10 9 0 12 6 13 30 6 17 -5 30 -5 30 -1 0
11 51 1 69 -13 12 -9 13 -8 6 3 -6 11 -2 13 19 9 14 -3 26 -2 26 2 0 3 13 5
30 2 19 -3 27 -8 23 -16 -4 -6 1 -5 10 3 9 7 26 11 37 8 11 -3 20 -2 20 3 0 4
16 4 35 0 24 -5 35 -4 35 4 0 6 5 4 10 -4 7 -11 10 -11 10 -2 0 7 5 10 11 7
13 -9 79 -12 79 -5 0 5 47 5 60 0 3 -1 8 -2 11 -2 18 3 339 2 372 -1 20 -1 37
0 37 4 0 3 10 5 23 3 12 -1 26 -3 30 -3 5 -1 5 -7 1 -13 -5 -9 -3 -9 9 1 9 7
26 11 37 8 11 -3 20 -2 20 3 0 4 12 5 28 3 15 -2 40 -4 55 -3 20 0 27 -3 22
-12 -4 -7 -1 -6 7 2 7 8 20 14 28 14 8 -1 21 -2 28 -3 8 -1 10 -6 6 -13 -5 -9
-3 -9 9 1 9 7 26 11 37 8 11 -3 20 -2 20 3 0 4 12 5 28 3 36 -6 93 -4 105 4 6
3 7 1 3 -5 -4 -7 -2 -12 3 -12 6 0 11 6 11 13 0 7 7 4 15 -7 9 -12 15 -15 15
-7 0 11 3 11 17 0 11 -10 14 -10 9 -1 -4 6 -5 12 -2 12 9 0 36 -62 30 -71 -3
-5 1 -9 8 -9 7 0 18 -11 25 -25 8 -19 8 -23 0 -18 -7 3 1 -6 16 -20 15 -15 25
-32 22 -37 -3 -6 -2 -10 3 -10 9 0 47 -70 44 -82 -1 -5 2 -8 7 -8 5 0 19 -20
31 -45 12 -25 26 -47 31 -51 5 -3 7 -10 4 -15 -4 -5 -2 -9 2 -9 5 0 20 -22 34
-50 13 -27 28 -50 33 -50 4 0 5 -8 2 -17 -4 -10 -4 -14 0 -10 9 9 37 -30 30
-42 -3 -5 1 -12 10 -15 9 -4 14 -9 11 -12 -3 -4 5 -18 18 -32 13 -14 22 -29
19 -34 -3 -4 -1 -8 4 -8 10 0 38 -69 34 -83 -2 -5 4 -7 12 -4 9 4 15 3 14 -1
-3 -12 34 -82 43 -82 5 0 9 -9 9 -20 0 -11 5 -20 11 -20 6 0 9 -9 6 -19 -3
-15 -1 -18 11 -14 11 5 14 2 9 -10 -3 -9 -2 -17 4 -17 5 0 15 -13 20 -30 6
-16 16 -30 21 -30 6 0 8 -9 5 -20 -3 -11 -1 -18 4 -14 5 3 9 -2 9 -10 0 -9 5
-16 10 -16 6 0 10 -7 10 -15 0 -8 3 -15 8 -15 9 0 38 -61 34 -73 -1 -5 2 -6 8
-2 9 5 15 -9 8 -18 -2 -2 5 -11 15 -21 9 -10 15 -22 12 -27 -4 -5 -2 -9 4 -9
10 0 54 -72 53 -87 0 -4 6 -12 14 -16 8 -5 12 -12 9 -18 -4 -5 -1 -9 5 -9 6 0
8 -5 5 -10 -3 -6 1 -13 9 -16 9 -3 13 -10 10 -15 -3 -5 2 -12 10 -15 9 -3 13
-10 10 -15 -3 -5 2 -12 10 -15 9 -3 16 -17 16 -30 0 -16 6 -24 18 -24 13 0 14
-2 3 -9 -11 -7 -11 -10 0 -17 8 -5 24 -27 36 -49 11 -22 31 -58 44 -80 12 -22
27 -50 34 -62 7 -13 15 -20 18 -16 4 3 7 -3 7 -14 0 -11 7 -26 16 -34 8 -7 13
-21 11 -30 -3 -10 0 -17 6 -16 6 1 16 -8 22 -20 7 -13 15 -20 18 -16 4 3 7 2
7 -4 0 -6 11 -9 25 -8 14 2 25 -2 25 -8 0 -8 3 -9 8 -1 8 13 71 13 91 0 9 -6
12 -5 7 2 -4 7 10 10 44 9 28 0 50 -5 50 -11 0 -8 2 -8 8 0 10 15 104 16 96 1
-5 -8 -2 -8 7 1 17 15 43 16 33 0 -5 -8 -3 -8 7 -2 20 13 139 13 139 0 0 -8 3
-8 8 -1 10 16 94 17 85 2 -5 -9 -3 -9 8 -1 18 14 80 14 98 0 11 -8 13 -8 8 0
-9 15 95 14 105 -1 5 -7 8 -6 8 1 0 13 58 13 79 0 9 -6 12 -5 7 2 -8 14 34 12
53 -2 11 -8 13 -8 8 0 -8 14 51 13 72 0 9 -6 12 -5 8 1 -7 11 97 12 109 0 4
-4 16 1 26 10 18 16 18 16 12 -3 -7 -17 -6 -17 9 -5 14 11 20 11 34 0 9 -8 14
-9 10 -3 -4 7 0 15 9 18 10 4 13 2 8 -6 -5 -8 -2 -9 9 -5 10 4 17 1 17 -6 0
-8 3 -8 8 -2 10 15 83 16 100 3 8 -7 16 -8 20 -2 10 13 83 15 98 3 8 -7 14 -7
19 1 3 5 11 10 16 10 6 0 7 -5 3 -12 -5 -7 -3 -8 7 -2 21 13 39 14 39 1 0 -8
3 -8 8 -2 11 16 34 17 43 3 5 -7 9 -8 9 -2 0 13 81 15 97 3 7 -7 14 -6 18 1 3
5 11 10 16 10 6 0 7 -6 3 -12 -5 -8 0 -7 11 2 21 17 24 17 36 -2 6 -8 9 -9 9
-1 0 6 11 10 25 8 14 -1 25 2 25 8 0 6 7 2 16 -9 8 -10 13 -13 9 -6 -7 14 11
17 20 2 4 -6 11 -7 17 -4 20 13 62 13 77 1 12 -9 13 -9 7 1 -4 7 -1 12 9 12 9
0 13 -5 9 -11 -9 -15 29 5 44 24 9 10 7 16 -8 27 -11 8 -20 22 -20 31 0 9 -7
19 -15 23 -8 3 -12 12 -9 21 3 8 1 15 -5 15 -6 0 -11 7 -11 15 0 8 -3 15 -8
15 -11 0 -47 72 -44 88 2 8 -1 11 -8 7 -7 -4 -14 2 -17 14 -3 12 -10 21 -15
21 -5 0 -6 5 -3 11 4 5 -2 18 -13 27 -10 9 -18 25 -16 35 1 9 -1 15 -6 12 -10
-6 -22 24 -14 36 3 5 1 8 -4 7 -6 -2 -9 1 -8 5 0 5 -7 13 -17 18 -9 6 -15 14
-12 20 4 5 1 9 -5 9 -6 0 -8 5 -5 10 3 6 -1 13 -9 16 -9 3 -16 14 -16 24 0 10
-7 20 -15 24 -8 3 -12 12 -9 21 3 8 1 15 -6 15 -6 0 -9 4 -6 9 3 5 -1 11 -9
15 -8 3 -15 12 -15 21 0 8 -5 15 -11 15 -5 0 -7 5 -4 10 3 6 -1 13 -9 16 -9 3
-13 10 -11 15 3 4 -2 16 -12 26 -10 10 -18 25 -18 33 1 8 -6 22 -15 30 -9 8
-22 30 -29 47 -7 18 -17 31 -21 28 -5 -3 -6 4 -3 15 4 14 0 20 -11 20 -9 0
-16 5 -16 11 0 6 -15 37 -32 68 -18 31 -31 62 -30 70 2 7 -1 10 -6 7 -5 -3
-20 15 -32 39 -13 25 -27 45 -32 45 -5 0 -7 4 -3 9 3 5 1 12 -5 16 -6 4 -8 10
-5 15 3 4 -2 11 -11 14 -10 4 -14 14 -11 26 3 11 1 18 -4 15 -4 -3 -17 12 -28
34 -12 22 -25 43 -31 46 -6 4 -8 10 -6 14 3 4 -4 18 -15 29 -11 12 -17 22 -14
22 4 0 -3 13 -14 29 -12 16 -21 34 -21 40 0 6 -5 11 -11 11 -5 0 -8 4 -5 9 3
5 -1 12 -10 15 -9 4 -14 13 -10 21 3 9 -1 18 -8 21 -8 3 -17 16 -20 30 -4 13
-11 24 -17 24 -6 0 -7 5 -4 10 3 6 1 10 -4 10 -6 0 -11 6 -11 14 0 7 -7 19
-15 26 -8 7 -12 16 -9 21 3 5 0 9 -6 9 -6 0 -8 5 -5 10 3 6 -1 13 -9 16 -9 3
-16 15 -16 25 0 10 -4 19 -10 19 -5 0 -10 6 -10 14 0 7 -7 19 -15 26 -8 7 -12
16 -9 21 3 5 -1 12 -10 15 -8 3 -18 19 -21 35 -4 16 -10 29 -14 29 -9 0 -35
51 -33 63 1 4 -2 7 -8 7 -5 0 -10 5 -10 12 0 6 -12 27 -27 46 -15 20 -21 32
-14 28 7 -5 -3 15 -23 43 -20 28 -35 52 -34 53 2 3 -25 48 -53 90 -11 15 -19
32 -19 38 0 6 -6 18 -12 25 -23 26 -33 41 -36 55 -2 8 -15 30 -30 49 -14 19
-19 31 -11 26 8 -4 4 3 -9 17 -12 13 -19 28 -15 31 3 4 1 7 -6 7 -8 0 -11 6
-7 16 3 8 2 12 -4 9 -5 -3 -12 6 -16 20 -3 14 -10 25 -15 25 -5 0 -9 7 -9 15
0 8 -4 15 -10 15 -5 0 -10 6 -10 14 0 8 -8 22 -17 32 -10 10 -18 20 -17 23 2
14 -9 40 -15 36 -4 -2 -13 12 -20 31 -7 18 -17 34 -22 34 -6 0 -8 4 -4 9 3 5
-2 16 -10 24 -8 9 -15 23 -15 31 0 9 -4 16 -9 16 -5 0 -14 14 -21 30 -7 17
-17 30 -23 30 -6 0 -7 3 -4 7 4 3 -1 12 -11 20 -9 8 -11 12 -5 8 8 -4 11 -1 7
9 -3 8 -12 17 -20 20 -8 3 -14 15 -14 26 0 11 -4 20 -10 20 -5 0 -10 6 -10 14
0 8 -5 16 -10 18 -6 2 -12 13 -13 25 0 12 -5 19 -9 17 -4 -3 -8 2 -8 11 0 9
-5 13 -10 10 -6 -4 -9 -3 -8 2 4 14 -13 53 -23 53 -6 0 -8 4 -5 8 4 7 -37 77
-64 110 -8 8 -8 12 0 12 7 0 6 5 -2 14 -7 8 -17 11 -23 8 -5 -3 -7 -2 -3 3 4
4 2 15 -5 23 -10 13 -9 15 3 8 9 -4 8 -1 -2 7 -10 8 -18 19 -18 26 0 6 -4 11
-10 11 -5 0 -10 6 -10 14 0 8 -7 22 -16 30 -8 9 -12 16 -9 16 4 0 -5 16 -19
35 -15 19 -24 35 -20 35 3 0 1 6 -5 13 -6 8 -8 17 -4 20 3 4 0 7 -8 7 -16 0
-47 65 -41 84 2 6 0 8 -3 4 -10 -9 -48 39 -41 51 3 5 -1 12 -10 15 -8 3 -12
10 -9 16 3 5 1 10 -5 10 -6 0 -8 5 -5 10 3 6 -1 13 -9 16 -9 3 -16 13 -16 21
0 11 -7 14 -24 11 -15 -3 -23 -1 -20 6 3 7 -4 12 -15 12 -16 0 -18 -3 -8 -15
9 -12 6 -12 -15 2 -17 11 -29 13 -33 6 -5 -6 -12 -6 -23 3 -12 10 -14 10 -8 1
4 -7 2 -13 -3 -13 -6 0 -11 5 -11 11 0 5 -5 7 -10 4 -6 -4 -8 -10 -6 -14 3 -4
-1 -8 -9 -8 -8 0 -12 4 -9 9 8 13 -32 15 -60 3 -12 -5 -21 -3 -27 6 -8 12 -13
7 -11 -12 1 -3 -5 -6 -13 -6 -8 0 -12 4 -9 9 8 13 -32 15 -60 3 -12 -5 -21 -3
-27 6 -8 12 -13 7 -11 -12 1 -3 -5 -6 -13 -6 -8 0 -12 4 -10 8 8 12 -22 18
-34 6 -8 -8 -11 -8 -11 2 0 7 -5 9 -10 6 -6 -4 -8 -10 -6 -14 3 -4 -1 -8 -9
-8 -8 0 -12 4 -9 9 8 13 -32 15 -60 3 -12 -5 -21 -3 -27 6 -8 13 -13 5 -10
-14 1 -4 -9 -2 -21 5 -29 15 -50 19 -42 7 3 -5 -6 -9 -20 -9 -14 0 -26 5 -26
11 0 5 -5 7 -10 4 -6 -4 -8 -11 -5 -16 3 -5 -1 -6 -9 -3 -9 3 -13 10 -10 16 3
5 -3 4 -15 -4 -17 -10 -25 -10 -41 -1 -13 9 -21 9 -25 2 -5 -7 -12 -6 -21 2
-8 6 -17 9 -21 5 -3 -3 -1 -6 5 -6 7 0 12 -5 12 -11 0 -7 -9 -5 -24 5 -16 10
-27 12 -31 5 -5 -7 -11 -6 -21 2 -8 6 -17 9 -21 5 -3 -3 -1 -6 5 -6 7 0 12 -5
12 -11 0 -7 -9 -5 -24 5 -16 10 -27 12 -31 5 -5 -7 -11 -6 -21 2 -8 6 -17 9
-21 5 -3 -3 -1 -6 5 -6 7 0 12 -5 12 -11 0 -7 -9 -5 -24 5 -16 10 -27 12 -31
5 -5 -7 -11 -6 -21 2 -8 6 -17 9 -21 5 -3 -3 -1 -6 5 -6 7 0 12 -4 12 -8 0 -5
-13 -7 -30 -4 -16 2 -30 9 -30 14 0 5 -5 6 -10 3 -6 -4 -8 -11 -5 -16 3 -5 -1
-6 -9 -3 -9 3 -13 10 -10 15 3 5 -2 6 -10 3 -9 -3 -14 -9 -11 -14 2 -4 -7 -5
-20 -2 -14 2 -28 8 -30 13 -3 4 -12 6 -20 3 -8 -4 -12 -10 -9 -15 3 -5 -2 -6
-10 -3 -9 3 -13 10 -10 15 3 5 -2 6 -10 3 -9 -3 -14 -9 -11 -14 2 -4 -7 -5
-20 -2 -14 2 -28 8 -30 13 -3 4 -12 6 -20 3 -8 -4 -12 -10 -9 -15 3 -5 -2 -6
-10 -3 -9 3 -13 10 -10 15 3 5 -2 6 -10 3 -9 -3 -14 -9 -11 -14 2 -4 -7 -5
-20 -2 -14 2 -28 8 -30 13 -3 4 -12 6 -20 3 -8 -4 -12 -10 -9 -15 3 -5 -2 -6
-10 -3 -9 3 -13 10 -10 15 3 5 -2 6 -10 3 -9 -3 -14 -9 -11 -14 2 -4 -7 -5
-20 -2 -14 2 -28 8 -30 13 -3 4 -12 6 -20 3 -8 -4 -12 -10 -9 -15 3 -5 -2 -6
-10 -3 -9 3 -13 10 -10 15 3 5 -2 6 -10 3 -9 -3 -14 -10 -11 -14 7 -11 -36 0
-54 14 -11 8 -13 8 -7 -1 4 -7 3 -13 -3 -13 -5 0 -13 5 -16 10 -3 6 -12 10
-18 9 -9 0 -9 -2 1 -6 6 -2 12 -9 12 -15 0 -6 -12 -3 -26 7 -14 9 -28 14 -32
11 -3 -3 0 -6 6 -6 7 0 12 -5 12 -11 0 -7 -10 -5 -26 6 -14 9 -28 14 -32 11
-3 -3 0 -6 6 -6 7 0 12 -5 12 -11 0 -7 -10 -5 -25 5 -21 14 -24 14 -19 1 5
-13 2 -14 -20 -6 -16 7 -27 7 -31 0 -4 -5 -12 -6 -18 -2 -15 9 -49 9 -64 0 -6
-4 -16 0 -23 8 -12 14 -44 9 -34 -6 3 -5 -2 -6 -10 -3 -9 3 -13 10 -10 15 3 5
-2 6 -10 3 -9 -3 -14 -9 -11 -14 2 -4 -7 -5 -20 -2 -14 2 -28 8 -30 13 -3 4
-12 6 -20 3 -8 -4 -12 -10 -9 -15 3 -5 -2 -6 -10 -3 -9 3 -13 10 -10 15 3 5
-2 6 -10 3 -9 -3 -14 -9 -11 -14 2 -4 -7 -5 -20 -2 -14 2 -28 8 -30 13 -3 4
-12 6 -20 3 -8 -4 -12 -10 -9 -15 3 -5 -2 -6 -10 -3 -9 3 -13 11 -10 18 3 6
-1 3 -9 -7 -13 -16 -15 -16 -21 -2 -4 12 -10 14 -25 5 -26 -13 -34 -13 -26 3
4 6 -1 3 -9 -7 -9 -11 -16 -15 -16 -8 0 6 -7 9 -15 6 -8 -4 -21 -1 -28 4 -8 7
-18 7 -27 2 -9 -5 -19 -5 -27 2 -11 8 -12 7 -7 -8 5 -18 5 -18 -9 -1 -10 13
-16 14 -19 6 -3 -8 -11 -10 -24 -4 -30 13 -45 14 -38 4 3 -5 10 -6 16 -3 6 4
8 2 5 -4 -9 -14 -48 -3 -41 12 3 6 -2 2 -10 -8 -9 -11 -16 -15 -16 -10 0 11
-40 11 -57 1 -7 -4 -15 -2 -19 4 -5 8 -3 9 6 4 9 -5 11 -4 6 4 -6 9 -11 9 -22
0 -7 -6 -20 -9 -28 -6 -7 3 -18 1 -24 -5 -6 -6 -12 -6 -17 3 -6 8 -4 10 5 4 9
-5 11 -4 6 4 -6 9 -11 9 -22 0 -7 -6 -20 -9 -28 -6 -7 3 -18 1 -24 -5 -6 -6
-12 -6 -17 3 -6 8 -4 10 5 4 9 -5 11 -4 6 4 -6 9 -11 9 -21 1 -8 -7 -24 -9
-36 -5 -14 5 -19 4 -15 -4 5 -7 1 -9 -8 -5 -9 3 -13 11 -9 18 4 6 -1 5 -10 -3
-10 -8 -24 -10 -34 -6 -28 13 -44 14 -37 4 3 -5 10 -6 16 -3 7 4 8 2 4 -5 -6
-9 -14 -8 -32 3 -22 15 -23 15 -18 -1 5 -17 5 -17 -9 0 -10 13 -16 14 -19 6
-3 -8 -11 -10 -24 -4 -30 13 -45 14 -38 4 3 -5 10 -6 16 -3 7 4 8 2 4 -5 -6
-9 -14 -8 -32 3 -22 15 -23 15 -18 -1 5 -17 5 -17 -9 0 -10 13 -16 14 -19 6
-3 -8 -11 -10 -24 -4 -30 13 -45 14 -38 4 3 -5 10 -6 16 -3 7 4 8 2 4 -5 -6
-9 -14 -8 -32 3 -22 15 -23 15 -18 -1 5 -17 5 -17 -9 0 -10 13 -16 14 -19 6
-3 -8 -11 -10 -24 -4 -30 13 -45 14 -38 4 3 -5 10 -6 16 -3 7 4 8 2 4 -5 -6
-9 -14 -8 -32 3 -22 15 -23 15 -18 -1 5 -17 5 -17 -9 0 -10 13 -16 14 -19 6
-3 -8 -11 -10 -24 -4 -30 13 -45 14 -38 4 3 -5 10 -6 16 -3 6 4 8 2 5 -4 -9
-14 -48 -3 -41 12 3 6 -2 2 -10 -8 -9 -11 -16 -16 -16 -10 0 5 -23 9 -50 9
-28 1 -50 -3 -50 -8 0 -4 -5 -5 -10 -2 -6 4 -7 12 -3 18 4 7 0 7 -10 -1 -9 -8
-25 -11 -37 -7 -12 4 -20 2 -20 -5 0 -6 -5 -8 -10 -5 -6 4 -7 12 -3 18 4 7 0
7 -10 -1 -9 -8 -25 -11 -37 -7 -12 4 -20 2 -20 -5 0 -6 -5 -8 -10 -5 -6 4 -7
12 -3 18 4 7 0 7 -10 -1 -9 -8 -25 -11 -37 -7 -12 4 -20 2 -20 -5 0 -6 -5 -8
-10 -5 -6 4 -8 10 -6 14 3 4 -6 7 -19 7 -13 0 -21 -4 -19 -8 3 -5 10 -5 16 -2
7 4 8 2 4 -5 -6 -9 -14 -8 -32 3 -22 15 -23 15 -18 -1 5 -17 5 -17 -9 0 -10
13 -16 14 -19 6 -3 -8 -11 -10 -24 -4 -30 13 -45 14 -38 4 3 -5 10 -6 16 -3 7
4 8 2 4 -5 -6 -9 -14 -8 -32 3 -22 15 -23 15 -18 -1 5 -17 5 -17 -9 0 -10 13
-16 14 -19 6 -3 -8 -11 -10 -24 -4 -30 13 -45 14 -38 4 3 -5 10 -6 16 -3 7 4
8 2 4 -4 -8 -13 -36 -5 -36 12 0 6 -5 3 -11 -8 -9 -14 -13 -15 -19 -5 -5 7
-16 14 -24 15 -9 1 -14 -2 -10 -7 3 -5 10 -6 16 -3 7 4 8 2 4 -5 -6 -9 -14 -8
-32 3 -22 15 -23 15 -18 -1 5 -17 5 -17 -9 0 -10 13 -16 14 -19 6 -3 -8 -11
-10 -24 -4 -30 13 -45 14 -38 4 3 -5 10 -6 16 -3 7 4 8 2 4 -5 -6 -9 -14 -8
-32 3 -22 15 -23 15 -18 -1 5 -17 5 -17 -9 0 -10 13 -16 14 -19 6 -3 -8 -11
-10 -24 -4 -30 13 -45 14 -38 4 3 -5 10 -6 16 -3 6 4 8 2 5 -4 -9 -14 -48 -3
-41 12 3 6 -2 2 -10 -8 -9 -11 -16 -16 -16 -10 0 5 -13 9 -30 10 -19 1 -27 -3
-23 -10 4 -6 -4 -2 -16 8 -17 16 -21 17 -16 4 7 -17 -16 -20 -31 -5 -10 10
-26 9 -20 -1 6 -10 -51 -9 -60 1 -12 12 -26 8 -18 -5 4 -7 -3 -4 -15 6 -19 17
-21 17 -15 3 5 -15 3 -16 -21 -7 -33 13 -38 13 -30 0 3 -6 -1 -7 -9 -4 -9 3
-14 9 -12 13 7 11 -42 5 -56 -7 -11 -8 -21 -8 -41 3 -15 8 -25 10 -22 6 3 -5
-2 -12 -11 -15 -8 -3 -13 -2 -9 3 9 15 -19 19 -35 5 -13 -11 -20 -11 -43 1
-15 8 -25 10 -22 6 3 -5 -2 -12 -11 -15 -8 -3 -13 -2 -10 3 10 15 -22 21 -34
6 -13 -15 -52 -8 -44 9 3 6 -2 2 -10 -8 -11 -14 -16 -15 -16 -6 0 9 -3 11 -10
4 -12 -12 -82 -5 -74 7 3 5 0 9 -5 9 -6 0 -11 -7 -11 -16 0 -13 -3 -14 -13 -5
-8 6 -17 8 -21 4 -10 -11 -79 -3 -95 10 -11 9 -13 9 -8 1 4 -7 -3 -14 -18 -16
-13 -3 -22 -1 -19 3 8 13 -10 11 -23 -2 -8 -8 -13 -7 -18 2 -6 8 -4 10 5 4 8
-5 11 -4 6 3 -9 15 -38 3 -29 -12 3 -6 -4 -2 -16 8 -17 16 -21 17 -16 4 7 -17
-16 -20 -31 -5 -12 12 -26 8 -18 -5 4 -7 -3 -4 -15 6 -17 16 -21 17 -16 4 7
-17 -17 -20 -32 -3 -4 4 -2 5 6 0 9 -5 12 -4 7 3 -4 6 -13 9 -21 6 -8 -4 -13
-9 -10 -13 6 -10 -53 -7 -62 4 -5 4 -2 5 6 0 9 -5 12 -4 7 3 -4 6 -13 9 -21 6
-8 -4 -13 -10 -10 -14 3 -5 -3 -7 -12 -5 -10 2 -28 4 -41 4 -13 1 -20 5 -17
11 3 6 1 10 -4 10 -6 0 -11 -7 -11 -16 0 -13 -3 -14 -14 -5 -8 7 -17 8 -20 3
-2 -4 -21 -6 -40 -4 -20 2 -33 8 -30 13 3 5 0 9 -5 9 -6 0 -11 -7 -11 -16 0
-13 -3 -14 -14 -5 -10 8 -16 9 -21 1 -3 -6 -11 -8 -16 -5 -5 4 -39 6 -76 6
-37 0 -74 6 -82 12 -10 8 -13 9 -8 1 4 -7 0 -15 -9 -18 -8 -3 -13 -2 -10 3 3
5 -1 11 -9 15 -8 3 -17 1 -20 -4 -9 -14 -49 -12 -64 3 -8 7 -11 7 -8 1 4 -7
-3 -14 -18 -16 -13 -3 -22 -2 -20 2 3 5 -2 11 -11 14 -10 4 -13 2 -8 -6z
m-1776 -3534 c0 -8 -19 -13 -24 -6 -3 5 1 9 9 9 8 0 15 -2 15 -3z m-335 -233
c3 -5 2 -12 -3 -15 -5 -3 -9 1 -9 9 0 17 3 19 12 6z m-81 -249 c3 -5 -1 -9 -9
-9 -8 0 -12 4 -9 9 3 4 7 8 9 8 2 0 6 -4 9 -8z m163 -87 c0 -8 -4 -12 -9 -9
-5 3 -6 10 -3 15 9 13 12 11 12 -6z m487 7 c3 -5 -1 -9 -9 -9 -8 0 -12 4 -9 9
3 4 7 8 9 8 2 0 6 -4 9 -8z m-729 -391 c3 -5 2 -12 -3 -15 -5 -3 -9 1 -9 9 0
17 3 19 12 6z m-80 -90 c3 -5 2 -12 -3 -15 -5 -3 -9 1 -9 9 0 17 3 19 12 6z
m895 3 c0 -8 -19 -13 -24 -6 -3 5 1 9 9 9 8 0 15 -2 15 -3z m385 -153 c3 -5 2
-12 -3 -15 -5 -3 -9 1 -9 9 0 17 3 19 12 6z m160 -90 c3 -5 2 -12 -3 -15 -5
-3 -9 1 -9 9 0 17 3 19 12 6z m-1038 -246 c0 -8 -4 -12 -9 -9 -5 3 -6 10 -3
15 9 13 12 11 12 -6z m398 -64 c3 -5 2 -12 -3 -15 -5 -3 -9 1 -9 9 0 17 3 19
12 6z m320 -170 c3 -5 2 -12 -3 -15 -5 -3 -9 1 -9 9 0 17 3 19 12 6z m0 -310
c3 -5 2 -12 -3 -15 -5 -3 -9 1 -9 9 0 17 3 19 12 6z m-1918 -86 c0 -8 -4 -12
-9 -9 -5 3 -6 10 -3 15 9 13 12 11 12 -6z m843 11 c0 -2 -8 -10 -17 -17 -16
-13 -17 -12 -4 4 13 16 21 21 21 13z m-510 -12 c0 -8 -19 -13 -24 -6 -3 5 1 9
9 9 8 0 15 -2 15 -3z m183 -39 c-3 -9 -8 -14 -10 -11 -3 3 -2 9 2 15 9 16 15
13 8 -4z m1208 -42 c13 -16 12 -17 -3 -4 -10 7 -18 15 -18 17 0 8 8 3 21 -13z
m-1516 -123 c3 -6 -1 -7 -9 -4 -18 7 -21 14 -7 14 6 0 13 -4 16 -10z m-87 -85
c-3 -3 -9 2 -12 12 -6 14 -5 15 5 6 7 -7 10 -15 7 -18z m1612 -29 c0 -2 -8
-10 -17 -17 -16 -13 -17 -12 -4 4 13 16 21 21 21 13z m-1570 -30 c0 -2 -8 -10
-17 -17 -16 -13 -17 -12 -4 4 13 16 21 21 21 13z m391 -23 c13 -16 12 -17 -3
-4 -17 13 -22 21 -14 21 2 0 10 -8 17 -17z m615 -75 c3 -4 -1 -5 -10 -4 -8 1
-18 5 -22 8 -3 4 1 5 10 4 8 -1 18 -5 22 -8z m834 -62 c0 -2 -8 -10 -17 -17
-16 -13 -17 -12 -4 4 13 16 21 21 21 13z m238 -21 c-3 -3 -9 2 -12 12 -6 14
-5 15 5 6 7 -7 10 -15 7 -18z m-1803 -3 c-3 -3 -11 0 -18 7 -9 10 -8 11 6 5
10 -3 15 -9 12 -12z m1276 1 c13 -16 12 -17 -3 -4 -10 7 -18 15 -18 17 0 8 8
3 21 -13z m609 7 c0 -5 -5 -10 -11 -10 -5 0 -7 5 -4 10 3 6 8 10 11 10 2 0 4
-4 4 -10z m-1886 -86 c3 -8 2 -12 -4 -9 -6 3 -10 10 -10 16 0 14 7 11 14 -7z
m281 7 c3 -5 2 -12 -3 -15 -5 -3 -9 1 -9 9 0 17 3 19 12 6z m1645 -105 c0 -2
-8 -10 -17 -17 -16 -13 -17 -12 -4 4 13 16 21 21 21 13z m-1565 -15 c3 -5 2
-12 -3 -15 -5 -3 -9 1 -9 9 0 17 3 19 12 6z m-275 -37 c0 -8 -19 -13 -24 -6
-3 5 1 9 9 9 8 0 15 -2 15 -3z m317 -19 c0 -8 -4 -12 -9 -9 -5 3 -6 10 -3 15
9 13 12 11 12 -6z m-76 -62 c13 -16 12 -17 -3 -4 -10 7 -18 15 -18 17 0 8 8 3
21 -13z m1399 13 c0 -2 -8 -10 -17 -17 -16 -13 -17 -12 -4 4 13 16 21 21 21
13z m-1560 -16 c0 -5 -2 -10 -4 -10 -3 0 -8 5 -11 10 -3 6 -1 10 4 10 6 0 11
-4 11 -10z m325 0 c-3 -5 -12 -10 -18 -10 -7 0 -6 4 3 10 19 12 23 12 15 0z
m-510 -28 c-3 -3 -11 0 -18 7 -9 10 -8 11 6 5 10 -3 15 -9 12 -12z m179 -50
c3 -5 -1 -9 -9 -9 -8 0 -12 4 -9 9 3 4 7 8 9 8 2 0 6 -4 9 -8z m1720 -8 c3 -8
2 -12 -4 -9 -6 3 -10 10 -10 16 0 14 7 11 14 -7z m239 -29 c-3 -9 -8 -14 -10
-11 -3 3 -2 9 2 15 9 16 15 13 8 -4z m-682 -52 c13 -16 12 -17 -3 -4 -10 7
-18 15 -18 17 0 8 8 3 21 -13z m-230 -70 c13 -16 12 -17 -3 -4 -10 7 -18 15
-18 17 0 8 8 3 21 -13z m-1046 -2 c3 -5 2 -12 -3 -15 -5 -3 -9 1 -9 9 0 17 3
19 12 6z m1205 5 c0 -2 -7 -7 -16 -10 -8 -3 -12 -2 -9 4 6 10 25 14 25 6z
m-1080 -46 c0 -5 -2 -10 -4 -10 -3 0 -8 5 -11 10 -3 6 -1 10 4 10 6 0 11 -4
11 -10z m80 0 c0 -5 -5 -10 -11 -10 -5 0 -7 5 -4 10 3 6 8 10 11 10 2 0 4 -4
4 -10z m235 0 c3 -5 1 -10 -4 -10 -6 0 -11 5 -11 10 0 6 2 10 4 10 3 0 8 -4
11 -10z m1255 6 c0 -2 -8 -10 -17 -17 -16 -13 -17 -12 -4 4 13 16 21 21 21 13z
m345 -14 c-3 -3 -11 0 -18 7 -9 10 -8 11 6 5 10 -3 15 -9 12 -12z m-162 -187
c-3 -9 -8 -14 -10 -11 -3 3 -2 9 2 15 9 16 15 13 8 -4z m208 -42 c13 -16 12
-17 -3 -4 -17 13 -22 21 -14 21 2 0 10 -8 17 -17z m-1764 -38 c0 -8 -4 -12 -9
-9 -5 3 -6 10 -3 15 9 13 12 11 12 -6z m-157 -5 c0 -5 -5 -10 -11 -10 -5 0 -7
5 -4 10 3 6 8 10 11 10 2 0 4 -4 4 -10z m1370 6 c0 -2 -8 -10 -17 -17 -16 -13
-17 -12 -4 4 13 16 21 21 21 13z m-730 -70 c0 -2 -8 -10 -17 -17 -16 -13 -17
-12 -4 4 13 16 21 21 21 13z m-475 -16 c3 -6 -1 -7 -9 -4 -18 7 -21 14 -7 14
6 0 13 -4 16 -10z m1670 0 c3 -5 1 -10 -4 -10 -6 0 -11 5 -11 10 0 6 2 10 4
10 3 0 8 -4 11 -10z m-1480 -48 c-3 -3 -11 0 -18 7 -9 10 -8 11 6 5 10 -3 15
-9 12 -12z m1005 -16 c0 -2 -8 -10 -17 -17 -16 -13 -17 -12 -4 4 13 16 21 21
21 13z m-766 -54 c3 -5 -1 -9 -9 -9 -8 0 -12 4 -9 9 3 4 7 8 9 8 2 0 6 -4 9
-8z m1331 -2 c-3 -5 -12 -10 -18 -10 -7 0 -6 4 3 10 19 12 23 12 15 0z m-1741
-38 c3 -5 -1 -9 -9 -9 -8 0 -12 4 -9 9 3 4 7 8 9 8 2 0 6 -4 9 -8z m1506 4 c0
-2 -8 -10 -17 -17 -16 -13 -17 -12 -4 4 13 16 21 21 21 13z m-1330 -40 c0 -3
-4 -8 -10 -11 -5 -3 -10 -1 -10 4 0 6 5 11 10 11 6 0 10 -2 10 -4z m75 -6 c3
-5 1 -10 -4 -10 -6 0 -11 5 -11 10 0 6 2 10 4 10 3 0 8 -4 11 -10z m1565 6 c0
-2 -7 -7 -16 -10 -8 -3 -12 -2 -9 4 6 10 25 14 25 6z m-1360 -30 c0 -2 -8 -10
-17 -17 -16 -13 -17 -12 -4 4 13 16 21 21 21 13z m564 -14 c2 -4 -4 -8 -14 -8
-10 0 -16 4 -14 8 3 4 9 8 14 8 5 0 11 -4 14 -8z m-1004 -38 c0 -8 -19 -13
-24 -6 -3 5 1 9 9 9 8 0 15 -2 15 -3z m475 -4 c3 -5 1 -10 -4 -10 -6 0 -11 5
-11 10 0 6 2 10 4 10 3 0 8 -4 11 -10z m760 -48 c-3 -3 -11 0 -18 7 -9 10 -8
11 6 5 10 -3 15 -9 12 -12z m-1000 -32 c3 -5 1 -10 -4 -10 -6 0 -11 5 -11 10
0 6 2 10 4 10 3 0 8 -4 11 -10z m85 0 c0 -5 -5 -10 -11 -10 -5 0 -7 5 -4 10 3
6 8 10 11 10 2 0 4 -4 4 -10z m1514 -46 c3 -8 2 -12 -4 -9 -6 3 -10 10 -10 16
0 14 7 11 14 -7z m256 12 c0 -2 -8 -10 -17 -17 -16 -13 -17 -12 -4 4 13 16 21
21 21 13z m-1640 -162 c0 -8 -19 -13 -24 -6 -3 5 1 9 9 9 8 0 15 -2 15 -3z
m155 -84 c-3 -5 -12 -10 -18 -10 -7 0 -6 4 3 10 19 12 23 12 15 0z m115 -34
c0 -3 -4 -8 -10 -11 -5 -3 -10 -1 -10 4 0 6 5 11 10 11 6 0 10 -2 10 -4z
m-204 -72 c1 -9 0 -13 -4 -10 -3 4 -7 14 -8 22 -1 9 0 13 4 10 3 -4 7 -14 8
-22z m174 -48 c0 -2 -8 -10 -17 -17 -16 -13 -17 -12 -4 4 13 16 21 21 21 13z
m541 -19 c-10 -9 -11 -8 -5 6 3 10 9 15 12 12 3 -3 0 -11 -7 -18z m-316 -56
c3 -5 2 -12 -3 -15 -5 -3 -9 1 -9 9 0 17 3 19 12 6z m-318 -16 c0 -8 -4 -12
-9 -9 -5 3 -6 10 -3 15 9 13 12 11 12 -6z m-197 -29 c0 -3 -4 -8 -10 -11 -5
-3 -10 -1 -10 4 0 6 5 11 10 11 6 0 10 -2 10 -4z m680 -126 c0 -5 -2 -10 -4
-10 -3 0 -8 5 -11 10 -3 6 -1 10 4 10 6 0 11 -4 11 -10z m75 -259 c3 -5 2 -12
-3 -15 -5 -3 -9 1 -9 9 0 17 3 19 12 6z m-360 -21 c3 -5 1 -10 -4 -10 -6 0
-11 5 -11 10 0 6 2 10 4 10 3 0 8 -4 11 -10z m5 -80 c0 -5 -5 -10 -11 -10 -5
0 -7 5 -4 10 3 6 8 10 11 10 2 0 4 -4 4 -10z m80 0 c0 -5 -5 -10 -11 -10 -5 0
-7 5 -4 10 3 6 8 10 11 10 2 0 4 -4 4 -10z m1554 -6 c3 -8 2 -12 -4 -9 -6 3
-10 10 -10 16 0 14 7 11 14 -7z m-473 -111 c13 -16 12 -17 -3 -4 -17 13 -22
21 -14 21 2 0 10 -8 17 -17z m673 -9 c3 -8 2 -12 -4 -9 -6 3 -10 10 -10 16 0
14 7 11 14 -7z m-1754 -34 c0 -5 -5 -10 -11 -10 -5 0 -7 5 -4 10 3 6 8 10 11
10 2 0 4 -4 4 -10z m80 6 c0 -3 -4 -8 -10 -11 -5 -3 -10 -1 -10 4 0 6 5 11 10
11 6 0 10 -2 10 -4z m157 -41 c0 -8 -4 -12 -9 -9 -5 3 -6 10 -3 15 9 13 12 11
12 -6z m1523 11 c0 -2 -8 -10 -17 -17 -16 -13 -17 -12 -4 4 13 16 21 21 21 13z
m-915 -16 c-3 -5 -12 -10 -18 -10 -7 0 -6 4 3 10 19 12 23 12 15 0z m826 -13
c-10 -9 -11 -8 -5 6 3 10 9 15 12 12 3 -3 0 -11 -7 -18z m-1676 -27 c3 -5 1
-10 -4 -10 -6 0 -11 5 -11 10 0 6 2 10 4 10 3 0 8 -4 11 -10z m325 -74 c0 -3
-4 -8 -10 -11 -5 -3 -10 -1 -10 4 0 6 5 11 10 11 6 0 10 -2 10 -4z m1650 0 c0
-2 -8 -10 -17 -17 -16 -13 -17 -12 -4 4 13 16 21 21 21 13z m-1655 -86 c3 -5
1 -10 -4 -10 -6 0 -11 5 -11 10 0 6 2 10 4 10 3 0 8 -4 11 -10z m245 6 c0 -3
-4 -8 -10 -11 -5 -3 -10 -1 -10 4 0 6 5 11 10 11 6 0 10 -2 10 -4z m1514 -52
c3 -8 2 -12 -4 -9 -6 3 -10 10 -10 16 0 14 7 11 14 -7z m-1477 -69 c0 -8 -4
-12 -9 -9 -5 3 -6 10 -3 15 9 13 12 11 12 -6z m-117 -45 c0 -5 -2 -10 -4 -10
-3 0 -8 5 -11 10 -3 6 -1 10 4 10 6 0 11 -4 11 -10z m1521 -37 c13 -16 12 -17
-3 -4 -17 13 -22 21 -14 21 2 0 10 -8 17 -17z m-1644 -8 c0 -8 -4 -12 -9 -9
-5 3 -6 10 -3 15 9 13 12 11 12 -6z m358 -35 c3 -5 1 -10 -4 -10 -6 0 -11 5
-11 10 0 6 2 10 4 10 3 0 8 -4 11 -10z m-600 -28 c-3 -3 -11 0 -18 7 -9 10 -8
11 6 5 10 -3 15 -9 12 -12z m1535 -6 c0 -2 -8 -10 -17 -17 -16 -13 -17 -12 -4
4 13 16 21 21 21 13z m150 0 c0 -2 -7 -7 -16 -10 -8 -3 -12 -2 -9 4 6 10 25
14 25 6z m-1600 -40 c0 -2 -7 -7 -16 -10 -8 -3 -12 -2 -9 4 6 10 25 14 25 6z
m200 -6 c0 -5 -5 -10 -11 -10 -5 0 -7 5 -4 10 3 6 8 10 11 10 2 0 4 -4 4 -10z
m80 6 c0 -3 -4 -8 -10 -11 -5 -3 -10 -1 -10 4 0 6 5 11 10 11 6 0 10 -2 10 -4z
m75 -6 c3 -5 1 -10 -4 -10 -6 0 -11 5 -11 10 0 6 2 10 4 10 3 0 8 -4 11 -10z
m0 -80 c3 -5 1 -10 -4 -10 -6 0 -11 5 -11 10 0 6 2 10 4 10 3 0 8 -4 11 -10z
m1685 -41 c0 -5 -4 -9 -8 -9 -5 0 -9 7 -9 15 0 8 4 12 9 9 4 -3 8 -9 8 -15z
m2222 -1 c-7 -7 -12 -8 -12 -2 0 14 12 26 19 19 2 -3 -1 -11 -7 -17z m1745 0
c-3 -8 -6 -5 -6 6 -1 11 2 17 5 13 3 -3 4 -12 1 -19z m240 0 c-3 -8 -6 -5 -6
6 -1 11 2 17 5 13 3 -3 4 -12 1 -19z m-1442 3 c-9 -8 -36 -10 -30 -2 2 4 11 8
20 8 8 0 13 -3 10 -6z m291 -3 c3 -4 -1 -5 -10 -4 -8 1 -18 5 -22 8 -3 4 1 5
10 4 8 -1 18 -5 22 -8z m-4656 -38 c0 -5 -5 -10 -11 -10 -5 0 -7 5 -4 10 3 6
8 10 11 10 2 0 4 -4 4 -10z m2791 -47 c13 -16 12 -17 -3 -4 -17 13 -22 21 -14
21 2 0 10 -8 17 -17z m-2791 -113 c0 -5 -5 -10 -11 -10 -5 0 -7 5 -4 10 3 6 8
10 11 10 2 0 4 -4 4 -10z m80 0 c0 -5 -2 -10 -4 -10 -3 0 -8 5 -11 10 -3 6 -1
10 4 10 6 0 11 -4 11 -10z m2637 -35 c0 -8 -4 -12 -9 -9 -5 3 -6 10 -3 15 9
13 12 11 12 -6z m-1791 -7 c3 -4 -1 -5 -10 -4 -8 1 -18 5 -22 8 -3 4 1 5 10 4
8 -1 18 -5 22 -8z m519 2 c3 -6 -1 -7 -9 -4 -18 7 -21 14 -7 14 6 0 13 -4 16
-10z m706 -7 c13 -16 12 -17 -3 -4 -10 7 -18 15 -18 17 0 8 8 3 21 -13z m-431
-69 c0 -8 -19 -13 -24 -6 -3 5 1 9 9 9 8 0 15 -2 15 -3z m-1805 -44 c3 -5 1
-10 -4 -10 -6 0 -11 5 -11 10 0 6 2 10 4 10 3 0 8 -4 11 -10z m2690 -40 c-3
-5 -12 -10 -18 -10 -7 0 -6 4 3 10 19 12 23 12 15 0z m-1090 -39 c3 -5 2 -12
-3 -15 -5 -3 -9 1 -9 9 0 17 3 19 12 6z m-1331 -39 c3 -5 -1 -9 -9 -9 -8 0
-12 4 -9 9 3 4 7 8 9 8 2 0 6 -4 9 -8z m-304 -36 c0 -3 -4 -8 -10 -11 -5 -3
-10 -1 -10 4 0 6 5 11 10 11 6 0 10 -2 10 -4z m1604 -4 c3 -5 -1 -9 -9 -9 -8
0 -12 4 -9 9 3 4 7 8 9 8 2 0 6 -4 9 -8z m1836 4 c0 -2 -7 -7 -16 -10 -8 -3
-12 -2 -9 4 6 10 25 14 25 6z m-2239 -43 c13 -16 12 -17 -3 -4 -17 13 -22 21
-14 21 2 0 10 -8 17 -17z m-877 -1 c3 -5 -1 -9 -9 -9 -8 0 -12 4 -9 9 3 4 7 8
9 8 2 0 6 -4 9 -8z m72 -18 c1 -9 0 -13 -4 -10 -3 4 -7 14 -8 22 -1 9 0 13 4
10 3 -4 7 -14 8 -22z m1279 17 c3 -5 2 -12 -3 -15 -5 -3 -9 1 -9 9 0 17 3 19
12 6z m2095 -17 c0 -8 -19 -13 -24 -6 -3 5 1 9 9 9 8 0 15 -2 15 -3z m-2010
-20 c0 -8 -19 -13 -24 -6 -3 5 1 9 9 9 8 0 15 -2 15 -3z m1360 -8 c-7 -7 -13
-7 -20 0 -6 6 -3 10 10 10 13 0 16 -4 10 -10z m-3063 -12 c-3 -3 -12 -4 -19
-1 -8 3 -5 6 6 6 11 1 17 -2 13 -5z m2033 -18 c0 -2 -8 -10 -17 -17 -16 -13
-17 -12 -4 4 13 16 21 21 21 13z m-1575 -46 c3 -5 1 -10 -4 -10 -6 0 -11 5
-11 10 0 6 2 10 4 10 3 0 8 -4 11 -10z m1125 6 c0 -3 -4 -8 -10 -11 -5 -3 -10
-1 -10 4 0 6 5 11 10 11 6 0 10 -2 10 -4z m120 -2 c0 -8 -19 -13 -24 -6 -3 5
1 9 9 9 8 0 15 -2 15 -3z m-1365 -63 c3 -5 2 -12 -3 -15 -5 -3 -9 1 -9 9 0 17
3 19 12 6z m125 -21 c0 -5 -2 -10 -4 -10 -3 0 -8 5 -11 10 -3 6 -1 10 4 10 6
0 11 -4 11 -10z m77 -5 c0 -8 -4 -12 -9 -9 -5 3 -6 10 -3 15 9 13 12 11 12 -6z
m798 -3 c-3 -3 -11 0 -18 7 -9 10 -8 11 6 5 10 -3 15 -9 12 -12z m240 8 c3 -5
1 -10 -4 -10 -6 0 -11 5 -11 10 0 6 2 10 4 10 3 0 8 -4 11 -10z m-1444 -47
c13 -16 12 -17 -3 -4 -17 13 -22 21 -14 21 2 0 10 -8 17 -17z m89 -33 c0 -5
-5 -10 -11 -10 -5 0 -7 5 -4 10 3 6 8 10 11 10 2 0 4 -4 4 -10z m1280 0 c0 -5
-5 -10 -11 -10 -5 0 -7 5 -4 10 3 6 8 10 11 10 2 0 4 -4 4 -10z m80 0 c0 -5
-2 -10 -4 -10 -3 0 -8 5 -11 10 -3 6 -1 10 4 10 6 0 11 -4 11 -10z m80 0 c0
-5 -2 -10 -4 -10 -3 0 -8 5 -11 10 -3 6 -1 10 4 10 6 0 11 -4 11 -10z m4080 4
c0 -8 -19 -13 -24 -6 -3 5 1 9 9 9 8 0 15 -2 15 -3z m-2160 -28 c0 -2 -8 -10
-17 -17 -16 -13 -17 -12 -4 4 13 16 21 21 21 13z m-3040 -56 c0 -5 -5 -10 -11
-10 -5 0 -7 5 -4 10 3 6 8 10 11 10 2 0 4 -4 4 -10z m1290 4 c0 -8 -19 -13
-24 -6 -3 5 1 9 9 9 8 0 15 -2 15 -3z m-435 -43 c-9 -8 -36 -10 -30 -2 2 4 11
8 20 8 8 0 13 -3 10 -6z m320 0 c-9 -8 -36 -10 -30 -2 2 4 11 8 20 8 8 0 13
-3 10 -6z m2150 -21 c-3 -5 -12 -10 -18 -10 -7 0 -6 4 3 10 19 12 23 12 15 0z
m-3325 -20 c0 -5 -2 -10 -4 -10 -3 0 -8 5 -11 10 -3 6 -1 10 4 10 6 0 11 -4
11 -10z m837 -35 c0 -8 -4 -12 -9 -9 -5 3 -6 10 -3 15 9 13 12 11 12 -6z m320
0 c0 -8 -4 -12 -9 -9 -5 3 -6 10 -3 15 9 13 12 11 12 -6z m200 -40 c0 -8 -4
-12 -9 -9 -5 3 -6 10 -3 15 9 13 12 11 12 -6z m-637 -5 c0 -5 -5 -10 -11 -10
-5 0 -7 5 -4 10 3 6 8 10 11 10 2 0 4 -4 4 -10z m765 0 c3 -6 -1 -7 -9 -4 -18
7 -21 14 -7 14 6 0 13 -4 16 -10z m-324 -37 c13 -16 12 -17 -3 -4 -17 13 -22
21 -14 21 2 0 10 -8 17 -17z m-967 -1 c3 -5 -1 -9 -9 -9 -8 0 -12 4 -9 9 3 4
7 8 9 8 2 0 6 -4 9 -8z m1600 0 c3 -5 -1 -9 -9 -9 -8 0 -12 4 -9 9 3 4 7 8 9
8 2 0 6 -4 9 -8z m1777 -15 c-10 -9 -11 -8 -5 6 3 10 9 15 12 12 3 -3 0 -11
-7 -18z m-3816 -17 c-3 -5 -1 -10 6 -10 7 0 10 -3 6 -6 -9 -9 -28 6 -22 17 4
5 8 9 11 9 3 0 2 -4 -1 -10z m1120 -10 c3 -5 1 -10 -4 -10 -6 0 -11 5 -11 10
0 6 2 10 4 10 3 0 8 -4 11 -10z m480 1 c3 -5 2 -12 -3 -15 -5 -3 -9 1 -9 9 0
17 3 19 12 6z m-1160 -30 c3 -5 2 -12 -3 -15 -5 -3 -9 1 -9 9 0 17 3 19 12 6z
m2446 -8 c13 -16 12 -17 -3 -4 -10 7 -18 15 -18 17 0 8 8 3 21 -13z m-2327
-49 c3 -8 2 -12 -4 -9 -6 3 -10 10 -10 16 0 14 7 11 14 -7z m566 6 c0 -5 -5
-10 -11 -10 -5 0 -7 5 -4 10 3 6 8 10 11 10 2 0 4 -4 4 -10z m80 6 c0 -3 -4
-8 -10 -11 -5 -3 -10 -1 -10 4 0 6 5 11 10 11 6 0 10 -2 10 -4z m400 -6 c0 -5
-5 -10 -11 -10 -5 0 -7 5 -4 10 3 6 8 10 11 10 2 0 4 -4 4 -10z m75 1 c3 -5 2
-12 -3 -15 -5 -3 -9 1 -9 9 0 17 3 19 12 6z m169 1 c3 -5 -1 -9 -9 -9 -8 0
-12 4 -9 9 3 4 7 8 9 8 2 0 6 -4 9 -8z m2092 -37 c-1 -8 -5 -17 -8 -21 -5 -4
-4 16 1 34 3 9 9 -1 7 -13z m-1496 -5 c0 -5 -2 -10 -4 -10 -3 0 -8 5 -11 10
-3 6 -1 10 4 10 6 0 11 -4 11 -10z m-2040 -40 c0 -5 -5 -10 -11 -10 -5 0 -7 5
-4 10 3 6 8 10 11 10 2 0 4 -4 4 -10z m1440 4 c0 -8 -19 -13 -24 -6 -3 5 1 9
9 9 8 0 15 -2 15 -3z m84 -2 c3 -5 -1 -9 -9 -9 -8 0 -12 4 -9 9 3 4 7 8 9 8 2
0 6 -4 9 -8z m-1088 -27 c-1 -8 -5 -17 -8 -21 -5 -4 -4 16 1 34 3 9 9 -1 7
-13z m324 1 c0 -2 -8 -10 -17 -17 -16 -13 -17 -12 -4 4 13 16 21 21 21 13z
m-395 -16 c-3 -5 -12 -10 -18 -10 -7 0 -6 4 3 10 19 12 23 12 15 0z m635 6 c0
-3 -4 -8 -10 -11 -5 -3 -10 -1 -10 4 0 6 5 11 10 11 6 0 10 -2 10 -4z m515 -5
c3 -5 2 -12 -3 -15 -5 -3 -9 1 -9 9 0 17 3 19 12 6z m1615 5 c0 -2 -8 -10 -17
-17 -16 -13 -17 -12 -4 4 13 16 21 21 21 13z m1950 0 c0 -2 -7 -7 -16 -10 -8
-3 -12 -2 -9 4 6 10 25 14 25 6z m-5080 -40 c0 -3 -4 -8 -10 -11 -5 -3 -10 -1
-10 4 0 6 5 11 10 11 6 0 10 -2 10 -4z m3875 -5 c3 -5 2 -12 -3 -15 -5 -3 -9
1 -9 9 0 17 3 19 12 6z m-757 -46 c-3 -3 -9 2 -12 12 -6 14 -5 15 5 6 7 -7 10
-15 7 -18z m-3118 -35 c0 -5 -2 -10 -4 -10 -3 0 -8 5 -11 10 -3 6 -1 10 4 10
6 0 11 -4 11 -10z m760 6 c0 -2 -7 -7 -16 -10 -8 -3 -12 -2 -9 4 6 10 25 14
25 6z m755 -5 c3 -5 2 -12 -3 -15 -5 -3 -9 1 -9 9 0 17 3 19 12 6z m-515 -41
c0 -5 -5 -10 -11 -10 -5 0 -7 5 -4 10 3 6 8 10 11 10 2 0 4 -4 4 -10z m595 1
c3 -5 2 -12 -3 -15 -5 -3 -9 1 -9 9 0 17 3 19 12 6z m1885 -5 c-7 -7 -13 -7
-20 0 -6 6 -3 10 10 10 13 0 16 -4 10 -10z m-3160 -36 c0 -5 -5 -10 -11 -10
-5 0 -7 5 -4 10 3 6 8 10 11 10 2 0 4 -4 4 -10z m2930 6 c0 -2 -8 -10 -17 -17
-16 -13 -17 -12 -4 4 13 16 21 21 21 13z m-2475 -25 c-9 -8 -36 -10 -30 -2 2
4 11 8 20 8 8 0 13 -3 10 -6z m2261 -27 c1 -9 0 -13 -4 -10 -3 4 -7 14 -8 22
-1 9 0 13 4 10 3 -4 7 -14 8 -22z m-1572 8 c3 -5 -1 -9 -9 -9 -8 0 -12 4 -9 9
3 4 7 8 9 8 2 0 6 -4 9 -8z m-1149 -42 c3 -5 1 -10 -4 -10 -6 0 -11 5 -11 10
0 6 2 10 4 10 3 0 8 -4 11 -10z m85 0 c0 -5 -2 -10 -4 -10 -3 0 -8 5 -11 10
-3 6 -1 10 4 10 6 0 11 -4 11 -10z m75 0 c3 -5 1 -10 -4 -10 -6 0 -11 5 -11
10 0 6 2 10 4 10 3 0 8 -4 11 -10z m720 0 c3 -5 1 -10 -4 -10 -6 0 -11 5 -11
10 0 6 2 10 4 10 3 0 8 -4 11 -10z m-955 -14 c0 -3 -4 -8 -10 -11 -5 -3 -10
-1 -10 4 0 6 5 11 10 11 6 0 10 -2 10 -4z m-243 -31 c0 -8 -4 -12 -9 -9 -5 3
-6 10 -3 15 9 13 12 11 12 -6z m678 6 c3 -5 2 -12 -3 -15 -5 -3 -9 1 -9 9 0
17 3 19 12 6z m809 1 c3 -5 -1 -9 -9 -9 -8 0 -12 4 -9 9 3 4 7 8 9 8 2 0 6 -4
9 -8z m1761 -2 c3 -6 -1 -7 -9 -4 -18 7 -21 14 -7 14 6 0 13 -4 16 -10z
m-2368 -25 c0 -8 -4 -12 -9 -9 -5 3 -6 10 -3 15 9 13 12 11 12 -6z m-477 -9
c0 -3 -4 -8 -10 -11 -5 -3 -10 -1 -10 4 0 6 5 11 10 11 6 0 10 -2 10 -4z m800
-6 c0 -5 -5 -10 -11 -10 -5 0 -7 5 -4 10 3 6 8 10 11 10 2 0 4 -4 4 -10z
m2234 -50 c-6 -6 -10 -3 -10 10 0 13 4 16 10 10 7 -7 7 -13 0 -20z m290 12 c3
-5 -1 -9 -9 -9 -8 0 -12 4 -9 9 3 4 7 8 9 8 2 0 6 -4 9 -8z m-767 -37 c0 -8
-4 -12 -9 -9 -5 3 -6 10 -3 15 9 13 12 11 12 -6z m-2697 1 c0 -2 -7 -7 -16
-10 -8 -3 -12 -2 -9 4 6 10 25 14 25 6z m584 -4 c3 -5 -1 -9 -9 -9 -8 0 -12 4
-9 9 3 4 7 8 9 8 2 0 6 -4 9 -8z m5441 -71 c-3 -6 -11 -8 -17 -5 -6 4 -5 9 3
15 16 10 23 4 14 -10z"/>
<path d="M3615 11630 c3 -5 8 -10 11 -10 2 0 4 5 4 10 0 6 -5 10 -11 10 -5 0
-7 -4 -4 -10z"/>
<path d="M3735 11630 c3 -5 8 -10 11 -10 2 0 4 5 4 10 0 6 -5 10 -11 10 -5 0
-7 -4 -4 -10z"/>
<path d="M4295 11630 c3 -5 8 -10 11 -10 2 0 4 5 4 10 0 6 -5 10 -11 10 -5 0
-7 -4 -4 -10z"/>
<path d="M4415 11630 c3 -5 8 -10 11 -10 2 0 4 5 4 10 0 6 -5 10 -11 10 -5 0
-7 -4 -4 -10z"/>
<path d="M5394 7853 c-9 -13 -22 -20 -28 -16 -6 4 -4 -2 4 -12 12 -15 12 -17
1 -10 -11 6 -13 4 -9 -7 4 -8 -4 -26 -16 -39 -12 -13 -23 -27 -25 -31 -21 -56
-27 -68 -38 -68 -7 0 -12 -3 -11 -7 4 -16 -14 -53 -22 -48 -5 3 -7 -3 -5 -13
2 -10 -5 -25 -15 -32 -10 -7 -16 -19 -13 -26 3 -8 -2 -17 -11 -20 -9 -3 -13
-11 -9 -17 4 -6 0 -8 -9 -4 -12 4 -14 1 -10 -15 3 -13 1 -19 -5 -15 -6 4 -10
-1 -9 -11 0 -9 -5 -16 -12 -14 -8 1 -11 -2 -7 -8 4 -6 1 -17 -5 -25 -6 -8 -9
-19 -5 -24 3 -7 0 -8 -9 -5 -11 4 -14 0 -11 -15 3 -19 -5 -26 -27 -22 -4 0 -5
-5 -2 -13 3 -8 0 -17 -5 -21 -6 -3 -9 -11 -6 -16 4 -5 0 -12 -9 -15 -8 -3 -12
-12 -9 -20 3 -7 -2 -17 -11 -20 -9 -3 -16 -12 -16 -19 0 -7 -6 -15 -14 -18 -9
-4 -12 -14 -9 -26 3 -12 -3 -26 -16 -37 -12 -10 -21 -24 -21 -30 0 -7 -7 -14
-15 -18 -8 -3 -15 -10 -15 -16 0 -6 6 -8 13 -4 7 5 6 0 -3 -12 -21 -27 -32
-34 -45 -26 -5 3 -4 -2 4 -11 9 -12 10 -17 2 -17 -7 0 -9 -4 -6 -10 3 -5 1
-10 -5 -10 -6 0 -9 -4 -5 -9 3 -6 -1 -13 -8 -18 -7 -4 -23 -30 -36 -57 -12
-26 -25 -46 -28 -42 -3 3 0 14 8 23 13 16 12 17 -3 4 -10 -7 -16 -23 -14 -35
2 -12 -5 -26 -16 -34 -10 -7 -16 -18 -13 -23 8 -12 -20 -51 -29 -42 -4 4 -4 0
0 -10 4 -11 0 -19 -9 -23 -9 -3 -13 -12 -10 -21 4 -10 2 -14 -4 -10 -11 7 -25
-16 -27 -43 -1 -8 -7 -14 -14 -12 -8 1 -11 -1 -8 -6 7 -12 -33 -92 -46 -92 -6
0 -7 -7 -4 -16 4 -11 2 -15 -8 -11 -10 4 -13 -1 -11 -19 2 -17 -5 -30 -21 -41
-18 -12 -22 -19 -14 -28 8 -10 8 -15 -1 -21 -7 -4 -9 -3 -6 3 4 6 1 13 -6 16
-10 4 -13 -2 -9 -19 2 -14 0 -24 -7 -24 -7 0 -9 -5 -6 -10 3 -6 -1 -13 -10
-16 -9 -4 -15 -14 -14 -23 3 -29 -1 -34 -16 -21 -13 11 -14 10 -9 -5 5 -12 1
-23 -11 -31 -10 -8 -13 -14 -7 -14 20 0 13 -17 -9 -23 -12 -3 -18 -10 -14 -17
4 -6 -3 -20 -16 -31 -12 -10 -17 -19 -10 -19 8 0 7 -5 -3 -16 -9 -8 -14 -20
-11 -25 4 -5 -1 -6 -9 -3 -11 4 -14 -1 -12 -20 2 -14 0 -23 -4 -21 -4 3 -14
-3 -21 -12 -10 -12 -10 -14 -1 -9 6 4 12 2 12 -3 0 -6 -8 -11 -17 -11 -16 0
-16 -2 -3 -11 12 -9 11 -10 -5 -6 -17 3 -21 -1 -20 -22 0 -14 -6 -32 -15 -39
-8 -7 -10 -12 -5 -11 28 4 37 -2 32 -22 -4 -16 -3 -18 9 -8 17 14 19 -2 2 -20
-11 -12 -10 -13 6 -7 14 5 17 2 12 -9 -7 -18 10 -20 18 -2 2 6 4 3 3 -8 -2
-11 -6 -26 -10 -32 -6 -9 -3 -11 7 -7 11 4 16 0 16 -10 0 -9 5 -16 10 -16 6 0
10 -9 10 -21 0 -13 4 -18 12 -13 8 5 9 2 5 -9 -4 -11 -1 -17 8 -17 9 0 12 -6
9 -15 -4 -8 1 -17 10 -21 9 -3 13 -10 10 -15 -3 -5 0 -9 7 -9 6 0 9 -8 6 -19
-4 -15 0 -19 14 -16 16 3 17 1 9 -16 -8 -14 -8 -19 2 -17 6 2 12 -4 13 -12 1
-8 6 -14 13 -13 7 2 9 -4 5 -14 -5 -11 -3 -14 6 -8 10 6 11 3 2 -13 -12 -23
-5 -31 22 -27 11 2 14 -1 10 -8 -15 -24 -12 -37 6 -27 16 8 17 5 13 -17 -3
-14 -1 -24 4 -21 5 3 16 -1 24 -10 13 -14 12 -15 -3 -9 -9 3 -17 2 -17 -3 0
-6 5 -10 11 -10 6 0 17 -7 25 -15 14 -13 13 -15 -3 -16 -10 0 -13 -3 -5 -6 6
-2 9 -10 5 -16 -3 -7 4 -3 17 8 14 12 20 14 15 5 -16 -26 -15 -43 0 -30 11 9
12 7 8 -9 -3 -12 -9 -18 -14 -15 -16 9 -10 -3 8 -17 11 -10 14 -10 9 -1 -4 6
-2 12 3 12 6 0 11 -9 11 -19 0 -11 6 -22 13 -24 9 -4 8 -8 -3 -16 -8 -6 -10
-11 -5 -11 6 0 15 4 21 10 6 6 10 3 10 -9 0 -11 -5 -17 -10 -14 -5 3 -6 1 -2
-5 4 -7 15 -12 24 -12 12 0 13 -3 5 -8 -9 -6 -7 -12 7 -22 14 -10 16 -17 9
-26 -8 -9 -3 -17 16 -30 15 -10 24 -23 21 -31 -3 -8 -2 -12 2 -10 7 5 32 -17
33 -30 1 -5 4 -7 8 -6 4 1 8 -4 8 -12 0 -8 -5 -11 -11 -8 -6 3 -1 -4 12 -16
12 -12 22 -29 22 -37 0 -8 4 -12 10 -9 6 4 7 -1 3 -11 -5 -12 -3 -15 6 -9 11
6 11 3 0 -16 -11 -22 -11 -23 5 -10 9 8 16 10 15 5 -4 -21 2 -34 15 -34 8 0
17 -4 20 -9 4 -5 -4 -7 -16 -4 -22 4 -22 3 2 -11 16 -10 19 -15 10 -16 -13 0
-13 -2 0 -9 8 -6 19 -7 25 -4 5 3 5 0 -2 -7 -13 -14 3 -63 18 -54 5 3 9 -2 9
-10 0 -9 5 -16 10 -16 6 0 9 -6 8 -12 -2 -7 3 -12 10 -10 6 1 12 -2 12 -8 0
-5 -6 -10 -12 -10 -7 0 -5 -5 5 -11 9 -5 17 -16 17 -24 0 -8 5 -17 12 -21 6
-4 8 -3 4 4 -3 6 -2 13 3 16 11 7 9 -13 -3 -33 -6 -10 -5 -12 2 -7 7 4 12 1
12 -8 0 -8 -5 -16 -12 -18 -9 -3 -9 -6 0 -12 7 -4 12 -2 12 3 0 6 5 11 10 11
6 0 10 -7 10 -15 0 -8 5 -15 12 -15 6 0 3 -7 -8 -16 -10 -8 -13 -13 -7 -9 17
8 38 -6 40 -27 1 -34 3 -39 12 -34 4 3 16 -3 26 -14 10 -11 22 -17 28 -13 6 4
7 1 3 -6 -6 -9 -13 -8 -29 6 -21 18 -21 18 -5 -7 9 -14 23 -24 31 -24 14 1 14
-2 -1 -25 -16 -25 -16 -26 2 -11 18 14 19 13 14 -6 -4 -16 1 -25 17 -34 15 -8
21 -19 19 -36 -1 -13 3 -27 8 -31 6 -3 8 -2 5 4 -3 5 0 10 7 10 15 0 10 -27
-7 -38 -5 -3 -1 -9 8 -12 9 -4 13 -3 10 3 -3 6 -1 10 4 10 6 0 11 -9 11 -21 0
-11 4 -18 9 -15 4 3 7 -6 5 -20 -2 -22 0 -23 14 -12 13 11 15 10 10 -9 -7 -26
1 -29 22 -10 8 6 6 2 -4 -10 -18 -22 -15 -27 14 -25 3 0 6 -8 6 -18 0 -10 -3
-17 -6 -15 -3 2 -6 -5 -6 -15 0 -10 4 -17 7 -14 4 2 10 0 14 -5 3 -6 12 -8 20
-4 10 3 15 -1 15 -12 0 -14 3 -15 15 -5 12 10 15 10 15 0 0 -10 3 -10 15 0 8
7 15 9 15 4 0 -5 11 -9 25 -9 14 0 25 3 25 6 0 8 32 5 47 -4 6 -4 14 -3 18 2
4 7 15 7 30 1 14 -5 25 -6 25 -1 0 9 36 8 46 -2 4 -3 16 -2 27 4 15 8 18 8 12
-1 -6 -9 -3 -9 13 -1 14 7 23 8 27 1 4 -7 12 -7 23 -1 10 6 23 6 34 0 10 -5
18 -6 18 -2 0 4 11 8 25 8 14 0 25 -4 25 -9 0 -5 6 -4 13 2 6 5 21 6 32 2 11
-4 32 -4 47 1 16 4 30 3 34 -2 4 -6 11 -6 20 2 11 9 14 9 14 0 0 -8 5 -9 19
-1 14 7 22 7 26 0 5 -8 11 -7 21 1 11 9 14 9 14 0 0 -7 5 -9 12 -5 17 10 68
11 68 0 0 -5 6 -4 13 2 6 5 21 6 32 2 11 -4 32 -4 47 1 16 4 30 3 34 -2 4 -6
11 -6 20 2 11 9 14 9 14 0 0 -8 5 -9 19 -1 14 7 22 7 26 0 5 -8 11 -7 21 1 11
9 14 9 14 0 0 -7 5 -9 12 -5 16 10 68 11 68 1 0 -4 8 -3 18 2 11 6 24 6 32 1
9 -5 20 -4 28 2 10 9 16 8 23 -3 7 -11 9 -11 9 0 0 11 3 11 15 1 9 -7 15 -8
15 -2 0 12 33 10 42 -3 5 -6 8 -5 8 4 0 11 3 11 15 1 8 -7 15 -9 15 -4 0 5 11
9 25 9 14 0 25 -4 25 -10 0 -5 5 -3 10 5 9 13 11 13 20 0 6 -10 10 -11 10 -3
0 8 7 10 23 5 28 -9 48 -9 66 2 8 5 16 3 22 -5 7 -12 9 -12 9 0 0 11 3 11 15
1 9 -7 15 -8 15 -2 0 12 33 10 42 -3 5 -6 8 -5 8 4 0 11 3 11 15 1 8 -7 15 -9
15 -4 0 5 11 9 25 9 14 0 25 -4 25 -10 0 -5 5 -3 10 5 9 13 11 13 20 0 6 -10
10 -11 10 -3 0 8 7 10 23 5 28 -9 48 -9 66 2 8 5 16 3 22 -5 7 -12 9 -12 9 0
0 11 3 11 15 1 9 -7 15 -8 15 -2 0 12 33 10 42 -3 5 -6 8 -5 8 4 0 11 3 11 15
1 8 -7 15 -9 15 -4 0 5 11 9 25 9 14 0 25 -4 25 -10 0 -5 4 -4 9 4 5 8 14 10
22 5 18 -11 49 -13 49 -2 0 4 3 7 8 6 15 -4 52 14 47 23 -4 5 2 9 11 9 10 0
14 3 11 7 -4 3 -1 13 6 21 10 13 9 15 -3 8 -13 -7 -13 -6 0 6 8 7 22 26 30 42
29 57 35 66 42 66 5 0 8 6 8 14 0 7 7 19 15 26 9 7 13 15 10 18 -2 3 3 11 13
19 10 9 11 12 2 7 -8 -4 -4 5 10 21 14 16 18 25 10 21 -8 -4 -5 1 7 12 12 11
19 22 16 26 -3 3 5 15 18 27 13 11 17 17 9 13 -8 -5 -2 9 13 29 15 20 25 37
21 37 -4 0 1 7 12 16 10 8 12 13 4 9 -8 -4 -6 1 4 9 11 9 17 16 13 16 -4 0 -3
9 3 20 6 11 16 17 22 14 6 -4 8 -3 4 4 -3 6 -2 13 4 17 6 4 8 11 5 16 -4 5 1
12 9 15 9 3 14 10 11 14 -3 4 5 19 16 34 11 14 17 26 13 26 -4 0 0 6 11 13 10
8 15 19 12 24 -4 6 0 13 8 17 8 3 15 15 15 27 0 12 3 20 6 16 4 -3 18 16 31
43 14 28 30 50 36 50 5 0 8 3 4 6 -6 7 30 81 44 90 5 3 9 14 9 25 0 13 4 18
12 13 8 -5 9 -2 5 9 -3 10 -2 17 4 17 6 0 7 5 4 10 -4 6 -1 9 6 8 7 -2 14 4
14 12 0 8 7 14 14 12 7 -1 10 1 7 6 -3 5 1 20 9 35 8 15 11 27 7 27 -4 0 1 5
11 11 9 6 15 14 12 19 -3 4 2 11 11 14 8 3 12 10 9 16 -3 5 -1 10 4 10 6 0 10
3 9 8 -5 16 23 52 35 45 8 -5 8 -2 -1 9 -10 13 -10 17 3 22 9 3 14 10 11 15
-3 5 1 11 9 15 9 3 12 12 8 22 -4 12 -3 15 5 10 7 -4 12 -1 12 8 0 9 5 16 11
16 5 0 8 4 4 9 -3 5 0 15 7 23 26 27 43 52 31 44 -7 -4 -13 -2 -13 3 0 6 6 11
14 11 8 0 18 5 22 12 5 7 3 8 -7 3 -8 -5 -7 0 4 12 9 11 14 23 11 26 -4 4 1 9
10 13 9 3 13 10 10 15 -3 5 1 12 10 15 9 3 12 12 9 21 -4 11 -2 14 5 9 8 -5
12 0 12 13 0 12 5 21 11 21 5 0 7 5 4 10 -3 6 -1 10 5 10 6 0 8 5 5 10 -3 6
-1 10 4 10 6 0 11 7 11 15 0 8 5 15 11 15 5 0 7 5 4 10 -3 6 -1 10 5 10 6 0 8
5 5 10 -3 6 -1 10 5 10 6 0 9 4 6 9 -3 5 1 12 9 15 8 3 14 11 13 18 -2 7 3 12
9 11 7 -2 12 0 11 5 -3 13 14 62 22 62 4 0 11 10 15 23 10 31 13 56 6 54 -3
-1 -6 1 -6 4 0 3 -8 13 -18 23 -9 10 -14 22 -11 28 4 7 2 8 -4 4 -7 -4 -12 -1
-12 8 0 9 -5 16 -12 16 -6 0 -8 3 -5 7 4 3 -3 18 -15 31 -13 14 -17 22 -11 18
9 -5 11 -2 7 8 -3 9 -9 16 -13 16 -3 0 -12 9 -19 21 -11 17 -11 20 0 13 10 -6
10 -4 -1 9 -7 9 -18 14 -24 10 -5 -3 -7 -1 -3 5 3 6 2 13 -4 17 -6 4 -8 11 -5
16 4 5 1 9 -5 9 -6 0 -9 4 -5 9 3 6 -2 14 -11 19 -11 6 -15 16 -11 26 4 11 3
15 -4 11 -6 -4 -13 2 -16 14 -3 12 -9 21 -14 21 -5 0 -9 9 -9 20 0 11 -5 20
-11 20 -5 0 -7 5 -4 10 3 6 1 10 -5 10 -7 0 -9 7 -6 17 4 10 4 14 0 11 -8 -9
-34 16 -34 33 0 7 -8 21 -17 32 -11 12 -12 17 -4 12 10 -5 12 -4 7 3 -4 7 -15
12 -24 12 -15 0 -15 2 -2 10 8 5 10 10 3 10 -6 0 -16 12 -22 28 -16 37 -44 86
-53 90 -5 2 -8 10 -8 18 0 8 -4 14 -10 14 -5 0 -10 9 -10 20 0 11 -5 19 -12
18 -8 -2 -12 8 -12 24 1 15 -2 26 -5 25 -3 -1 -6 2 -6 6 0 5 -8 13 -18 18 -9
6 -15 14 -12 19 3 5 -4 15 -16 23 -13 10 -17 17 -9 22 7 5 4 13 -10 25 -11 9
-20 24 -20 33 0 8 -7 17 -15 21 -9 3 -12 12 -8 22 4 12 3 15 -5 10 -8 -5 -12
0 -12 13 0 12 -4 21 -10 21 -5 0 -12 11 -16 25 -3 14 -12 25 -20 25 -7 0 -11
6 -8 14 3 7 -1 20 -8 27 -7 8 -20 28 -28 44 -8 17 -21 36 -28 43 -7 8 -10 17
-7 22 3 5 2 10 -3 12 -14 6 -61 95 -54 103 4 5 1 5 -5 1 -8 -4 -13 -1 -13 8 0
9 -4 16 -10 16 -5 0 -10 7 -10 15 0 8 -6 15 -12 15 -10 0 -10 2 0 9 11 6 10
10 -3 15 -10 4 -15 12 -11 22 3 8 2 12 -4 9 -6 -3 -10 1 -10 9 0 9 -4 16 -9
16 -5 0 -14 13 -21 29 -6 16 -19 32 -28 36 -12 4 -13 8 -4 14 9 5 7 13 -8 29
-12 12 -17 28 -14 39 4 13 3 14 -3 5 -7 -9 -13 -5 -22 15 -7 15 -13 30 -14 33
0 3 -9 14 -19 25 -11 11 -17 28 -15 37 3 10 0 16 -7 15 -6 -1 -10 4 -8 11 1 6
-2 12 -7 12 -5 0 -14 14 -21 30 -7 17 -19 30 -26 30 -8 0 -14 3 -14 8 0 4
-486 7 -1079 7 l-1080 0 -17 -22z m-854 -1839 c0 -8 -19 -13 -24 -6 -3 5 1 9
9 9 8 0 15 -2 15 -3z m25 -92 c-3 -3 -11 0 -18 7 -9 10 -8 11 6 5 10 -3 15 -9
12 -12z m210 -72 c-3 -5 -12 -10 -18 -10 -7 0 -6 4 3 10 19 12 23 12 15 0z
m352 -245 c0 -8 -4 -12 -9 -9 -5 3 -6 10 -3 15 9 13 12 11 12 -6z m1040 -197
c-3 -8 -6 -5 -6 6 -1 11 2 17 5 13 3 -3 4 -12 1 -19z m-1353 -80 c-3 -4 -9 -8
-15 -8 -5 0 -9 4 -9 8 0 5 7 9 15 9 8 0 12 -4 9 -9z m151 -77 c3 -5 2 -12 -3
-15 -5 -3 -9 1 -9 9 0 17 3 19 12 6z m1106 -24 c-10 -9 -11 -8 -5 6 3 10 9 15
12 12 3 -3 0 -11 -7 -18z m-1266 -65 c-3 -3 -11 0 -18 7 -9 10 -8 11 6 5 10
-3 15 -9 12 -12z m1199 -41 c3 -5 -1 -11 -9 -14 -9 -4 -12 -1 -8 9 6 16 10 17
17 5z m-14 -47 c0 0 -10 -9 -22 -20 -16 -13 -19 -14 -10 -2 10 13 10 17 0 21
-7 3 -3 4 10 4 12 -1 22 -2 22 -3z m-106 -162 c2 -4 -5 -9 -17 -9 -17 -2 -19
0 -7 7 18 12 18 12 24 2z m-354 -16 c0 -2 -7 -7 -16 -10 -8 -3 -12 -2 -9 4 6
10 25 14 25 6z m252 -153 c-6 -3 -9 -10 -6 -15 4 -7 2 -8 -5 -4 -9 6 -9 11 0
22 6 8 15 12 18 8 3 -4 0 -9 -7 -11z m-54 -68 c-3 -3 -9 2 -12 12 -6 14 -5 15
5 6 7 -7 10 -15 7 -18z m-8 -68 c0 -4 -6 -2 -14 5 -8 7 -12 17 -9 22 5 8 23
-12 23 -27z m-30 -17 c-6 -11 -13 -20 -16 -20 -2 0 0 9 6 20 6 11 13 20 16 20
2 0 0 -9 -6 -20z m0 -35 c0 -2 -6 -8 -13 -14 -10 -8 -14 -7 -14 2 0 8 6 14 14
14 7 0 13 -1 13 -2z m-49 -48 c-6 -8 -8 -17 -4 -20 3 -4 1 -7 -5 -7 -14 0 -14
2 -6 24 3 9 11 16 16 16 7 0 6 -5 -1 -13z m-156 -16 c3 -5 2 -12 -3 -15 -5 -3
-9 1 -9 9 0 17 3 19 12 6z m132 -46 c-4 -8 -11 -15 -17 -15 -6 0 -6 7 2 20 14
22 24 19 15 -5z m-327 5 c0 -5 -2 -10 -4 -10 -3 0 -8 5 -11 10 -3 6 -1 10 4
10 6 0 11 -4 11 -10z m75 0 c3 -5 1 -10 -4 -10 -6 0 -11 5 -11 10 0 6 2 10 4
10 3 0 8 -4 11 -10z m225 -40 c0 -5 -2 -10 -4 -10 -3 0 -8 5 -11 10 -3 6 -1
10 4 10 6 0 11 -4 11 -10z m-220 -36 c0 -8 -19 -13 -24 -6 -3 5 1 9 9 9 8 0
15 -2 15 -3z m210 1 c0 -2 -6 -8 -13 -14 -10 -8 -14 -7 -14 2 0 8 6 14 14 14
7 0 13 -1 13 -2z m-34 -50 c-3 -20 -16 -31 -16 -13 0 13 8 28 16 28 1 0 1 -7
0 -15z m-29 -59 c0 -15 -21 -16 -34 -1 -4 4 -2 5 5 1 6 -4 12 -2 12 3 0 6 4
11 8 11 5 0 9 -6 9 -14z m-40 -60 c0 -8 -6 -12 -15 -9 -11 5 -11 7 0 14 7 5
13 9 14 9 0 0 1 -6 1 -14z m-30 -44 c-1 -18 -27 -27 -27 -10 0 4 5 8 11 8 5 0
7 5 4 10 -3 6 -2 10 4 10 5 0 9 -8 8 -18z m-40 -37 c0 -8 -4 -12 -9 -9 -5 3
-6 10 -3 15 9 13 12 11 12 -6z"/>
<path d="M4815 5090 c-3 -5 -1 -10 4 -10 6 0 11 5 11 10 0 6 -2 10 -4 10 -3 0
-8 -4 -11 -10z"/>
<path d="M2996 4537 c3 -10 9 -15 12 -12 3 3 0 11 -7 18 -10 9 -11 8 -5 -6z"/>
<path d="M5180 4449 c0 -5 5 -7 10 -4 6 3 10 8 10 11 0 2 -4 4 -10 4 -5 0 -10
-5 -10 -11z"/>
<path d="M4386 2228 c3 -5 10 -6 15 -3 13 9 11 12 -6 12 -8 0 -12 -4 -9 -9z"/>
<path d="M6510 2230 c0 -5 5 -10 11 -10 5 0 7 5 4 10 -3 6 -8 10 -11 10 -2 0
-4 -4 -4 -10z"/>
<path d="M3906 339 c4 -8 30 -6 38 2 3 3 -5 5 -19 5 -13 0 -22 -3 -19 -7z"/>
<path d="M4953 335 c0 -8 4 -12 9 -9 5 3 6 10 3 15 -9 13 -12 11 -12 -6z"/>
<path d="M6770 346 c0 -2 8 -10 18 -17 15 -13 16 -12 3 4 -13 16 -21 21 -21
13z"/>
<path d="M7176 337 c3 -10 9 -15 12 -12 3 3 0 11 -7 18 -10 9 -11 8 -5 -6z"/>
<path d="M7256 337 c3 -10 9 -15 12 -12 3 3 0 11 -7 18 -10 9 -11 8 -5 -6z"/>
</g>
</svg>
